<svg width="1200" height="970" viewBox="0 0 1200 970" fill="none" xmlns="http://www.w3.org/2000/svg">
<path d="M200 808.333C172.5 808.333 148.75 800.586 128.75 785.093C109.583 768.926 100 749.729 100 727.499V242.499C100 220.27 109.583 201.409 128.75 185.916C148.75 169.749 172.5 161.666 200 161.666H1000C1027.5 161.666 1050.83 169.749 1070 185.916C1090 201.409 1100 220.27 1100 242.499V727.499C1100 749.729 1090 768.926 1070 785.093C1050.83 800.586 1027.5 808.333 1000 808.333H200ZM600 525.416L1000 323.333V242.499L600 444.583L200 242.499V323.333L600 525.416Z" fill="#FEF7FF"/>
</svg>
