<?xml version="1.0" encoding="UTF-8" standalone="no"?>
<!-- Created with Inkscape (http://www.inkscape.org/) -->

<svg
   version="1.1"
   id="svg1"
   width="259.18811"
   height="265.70163"
   viewBox="0 0 259.18811 265.70164"
   preserveAspectRatio="xMidYMid slice"
   sodipodi:docname="Lines+diamond.png"
   xml:space="preserve"
   inkscape:export-filename="Meetteamsection.svg"
   inkscape:export-xdpi="1"
   inkscape:export-ydpi="1"
   xmlns:inkscape="http://www.inkscape.org/namespaces/inkscape"
   xmlns:sodipodi="http://sodipodi.sourceforge.net/DTD/sodipodi-0.dtd"
   xmlns="http://www.w3.org/2000/svg"
   xmlns:svg="http://www.w3.org/2000/svg"><defs
     id="defs1" /><sodipodi:namedview
     id="namedview1"
     pagecolor="#ffffff"
     bordercolor="#000000"
     borderopacity="0.25"
     inkscape:showpageshadow="2"
     inkscape:pageopacity="0.0"
     inkscape:pagecheckerboard="0"
     inkscape:deskcolor="#d1d1d1"
     showguides="true"><sodipodi:guide
       position="224.83139,236.02712"
       orientation="0,-1"
       id="guide2"
       inkscape:locked="false" /><inkscape:page
       x="0"
       y="0"
       width="259.18811"
       height="265.70163"
       id="page2"
       margin="0"
       bleed="0" /></sodipodi:namedview><g
     inkscape:groupmode="layer"
     inkscape:label="Image"
     id="g1"
     transform="translate(-0.44364557,-0.83466408)"><path
       style="fill:#89a7f7;stroke-width:1.1548"
       d="M 60.854668,263.23363 C 53.661077,251.2194 37.968432,239.92453 20.282251,234.03139 15.298895,232.37091 7.8100772,230.75004 3.7831819,230.46036 c -2.473997,-0.17798 -3.33953634,-0.37196 -3.33953634,-0.74848 0,-0.55508 0.69130244,-0.51206 7.57992634,0.47164 12.2667301,1.75172 26.4610501,7.66053 37.5652301,15.63767 3.668856,2.63567 9.753885,8.21252 11.546039,10.58178 0.482948,0.63847 0.992949,1.16284 1.13335,1.16528 0.503217,0.009 1.615206,-3.09535 1.615206,-4.50881 0,-1.01334 -0.395137,-1.96846 -1.33005,-3.21493 -0.731522,-0.9753 -1.289829,-1.90163 -1.240677,-2.05851 0.12451,-0.39741 -5.731732,-5.26364 -9.483482,-7.88026 -4.721906,-3.29325 -9.829396,-6.06932 -15.911878,-8.6486 -9.144021,-3.87749 -16.194172,-5.60561 -25.9661429,-6.36479 -6.94947671,-0.5399 -7.40941,-1.21633 -0.6234902,-0.91697 4.9160011,0.21685 13.1662931,1.62281 17.9774061,3.06358 6.805637,2.03806 17.065955,6.83456 23.692777,11.07592 1.714613,1.0974 5.591483,4.14954 8.615278,6.78253 5.312758,4.62613 5.55638,4.78727 7.237579,4.78727 1.68323,0 5.345933,-1.44718 5.345933,-2.11224 0,-0.65523 -5.432793,-6.54133 -8.928152,-9.6731 C 44.803304,224.93883 22.68887,215.42129 4.496349,214.32667 1.5069882,214.14681 0.44364556,213.9556 0.44364556,213.59793 c 0,-0.58899 0.88299114,-0.60302 6.13807684,-0.0976 8.3558246,0.8037 19.3242976,3.73445 27.5305896,7.35612 9.27616,4.09381 16.683445,8.56157 23.423183,14.12783 11.279458,9.31555 17.848033,19.41632 19.177766,29.49038 0.22083,1.67301 0.158088,2.06163 -0.332853,2.06163 -0.441331,0 -0.682923,-0.65469 -0.893084,-2.42017 -0.492807,-4.13968 -2.130148,-8.53416 -4.876051,-13.08692 -0.921768,-1.5283 -1.81673,-2.77873 -1.988807,-2.77873 -0.467339,0 -1.672808,2.92568 -1.672808,4.0599 0,0.97034 0.973431,2.8169 2.372361,4.50032 l 0.707592,0.85148 -1.731255,-0.76185 c -0.952176,-0.41901 -1.928435,-0.76185 -2.16944,-0.76185 -0.241013,0 0.09952,0.92774 0.756756,2.06163 1.160331,2.00189 2.585292,5.34271 3.13509,7.3502 0.192534,0.703 0.109265,0.98599 -0.28998,0.98599 -0.333099,0 -0.760148,-0.74782 -1.053872,-1.84547 -0.271612,-1.01501 -1.360728,-3.43519 -2.420245,-5.37818 -1.443688,-2.64749 -2.12417,-3.53271 -2.715655,-3.53271 -0.903236,0 -3.106113,0.90223 -4.173399,1.7093 -0.686514,0.51913 -0.682935,0.60424 0.06971,1.65986 0.924737,1.29696 4.187049,6.89845 4.187049,7.18927 0,0.10886 -0.178239,0.19793 -0.396088,0.19793 -0.217861,0 -1.28598,-1.48621 -2.373605,-3.30269 z"
       id="path2" /><path
       style="fill:#89a7f7;stroke-width:1.19819"
       d="m 195.94372,4.2072174 c 7.58381,12.2685016 24.1277,23.8024216 42.77327,29.8202856 5.25368,1.695623 13.14874,3.350797 17.39407,3.646608 2.6082,0.181747 3.52069,0.379832 3.52069,0.764321 0,0.566828 -0.7288,0.522897 -7.99111,-0.481622 -12.93214,-1.788794 -27.89643,-7.822659 -39.60296,-15.96863 -3.86787,-2.691454 -10.28298,-8.386334 -12.17236,-10.805737 -0.50914,-0.651983 -1.04681,-1.1874508 -1.19483,-1.1899425 -0.5305,-0.00919 -1.70281,3.1608605 -1.70281,4.6042355 0,1.034787 0.41656,2.010121 1.4022,3.282972 0.7712,0.995941 1.35979,1.941876 1.30797,2.102077 -0.13127,0.405823 6.04266,5.375043 9.99792,8.047041 4.97804,3.36295 10.36259,6.197773 16.77501,8.831642 9.64005,3.959554 17.07264,5.724248 27.37469,6.499496 7.32645,0.551326 7.81134,1.242072 0.65731,0.936377 -5.18267,-0.22144 -13.8805,-1.657156 -18.95259,-3.128419 -7.17482,-2.081194 -17.9917,-6.979208 -24.97801,-11.310333 -1.80761,-1.120626 -5.89479,-4.237362 -9.0826,-6.926078 -5.60095,-4.72404 -5.85779,-4.888591 -7.63019,-4.888591 -1.77453,0 -5.63593,1.477809 -5.63593,2.156946 0,0.669098 5.7275,6.679773 9.41247,9.877824 15.24986,13.23481 38.56389,22.953782 57.74327,24.071568 3.15153,0.183667 4.27255,0.378924 4.27255,0.744164 0,0.601455 -0.93089,0.615782 -6.47104,0.09967 -8.80909,-0.820709 -20.37255,-3.813487 -29.024,-7.511806 -9.77934,-4.180453 -17.58843,-8.74277 -24.69377,-14.426836 -11.89132,-9.512706 -18.8162,-19.827254 -20.21807,-30.1145231 -0.23281,-1.708418 -0.16666,-2.10526285 0.35091,-2.10526285 0.46527,0 0.71997,0.66854605 0.94153,2.47139105 0.51954,4.2272933 2.2457,8.7147789 5.14055,13.3638949 0.97177,1.560645 1.91528,2.837539 2.09669,2.837539 0.49269,0 1.76356,-2.987599 1.76356,-4.145824 0,-0.990877 -1.02624,-2.876518 -2.50105,-4.595566 l -0.74599,-0.8695012 1.82517,0.7779742 c 1.00383,0.427878 2.03304,0.777974 2.28713,0.777974 0.25408,0 -0.1049,-0.947375 -0.79781,-2.1052631 -1.22328,-2.0442581 -2.72553,-5.4557841 -3.30516,-7.5057611 -0.20297,-0.7178785 -0.11518,-1.00685775 0.30571,-1.00685775 0.35117,0 0.80139,0.76364705 1.11104,1.88452795 0.28635,1.036492 1.43454,3.5078933 2.55154,5.4920052 1.522,2.7035218 2.23939,3.6074768 2.86296,3.6074768 0.95223,0 3.27461,-0.921325 4.39978,-1.745476 0.72377,-0.5301171 0.71999,-0.6170284 -0.0735,-1.6949894 -0.97489,-1.3244092 -4.41417,-7.0444505 -4.41417,-7.3414255 0,-0.11116395 0.1879,-0.20211905 0.41757,-0.20211905 0.22968,0 1.35574,1.51766455 2.50237,3.37258895 z"
       id="path2-1"
       inkscape:transform-center-x="-86.975653"
       inkscape:transform-center-y="-83.477075" /><path
       style="fill:#86a5f7;stroke-width:2.00175"
       d="m 203.27672,253.57504 c -1.03322,-5.12571 -3.1646,-7.3578 -8.25447,-8.64457 -2.40292,-0.60747 -2.55761,-0.70124 -1.5629,-0.94735 4.92071,-1.21748 6.74993,-2.20703 8.16103,-4.41485 0.85873,-1.3436 1.95881,-4.84221 1.95881,-6.22964 0,-1.59395 0.59196,-0.77636 1.06471,1.47056 0.61769,2.93571 2.32457,6.07681 3.82736,7.04335 1.06561,0.68537 2.82844,1.31413 5.96376,2.12719 1.0057,0.26079 0.86124,0.35083 -1.62206,1.01119 -5.15578,1.37102 -7.03635,3.37779 -8.16978,8.71805 -0.24482,1.15344 -0.55122,2.09715 -0.68092,2.09715 -0.1296,0 -0.4382,-1.00398 -0.68554,-2.23108 z m 32.16002,-28.99424 c -0.59419,-3.33961 -2.19858,-4.98716 -5.34996,-5.4939 l -1.66795,-0.2682 1.90785,-0.45766 c 3.26758,-0.78383 4.51854,-2.11561 5.11006,-5.44016 l 0.2731,-1.53499 0.77043,2.51185 c 0.89458,2.91667 2.1468,4.06017 4.93732,4.50865 l 1.72102,0.2766 -1.96872,0.4721 c -2.86982,0.68821 -3.79035,1.56591 -4.68962,4.47146 l -0.77043,2.48925 z"
       id="path1" /><path
       style="fill:#86a5f7;stroke-width:2.00175"
       d="m 30.5925,54.874022 c -1.033215,-5.12571 -3.164595,-7.357809 -8.254463,-8.644572 -2.402924,-0.607476 -2.55761,-0.701247 -1.562899,-0.947357 4.920705,-1.217473 6.74993,-2.207023 8.161024,-4.414847 0.85873,-1.343599 1.95881,-4.842211 1.95881,-6.229638 0,-1.593949 0.591963,-0.776356 1.064711,1.470564 0.617695,2.935701 2.324572,6.07681 3.827359,7.043349 1.065616,0.685367 2.828438,1.314129 5.963766,2.127185 1.005695,0.26079 0.861234,0.350836 -1.622063,1.011194 -5.155785,1.371022 -7.036348,3.377787 -8.169777,8.718052 -0.244821,1.153431 -0.551228,2.097147 -0.68092,2.097147 -0.129606,0 -0.438201,-1.003985 -0.685548,-2.231077 z M 62.752527,25.879779 c -0.594192,-3.339616 -2.198582,-4.987161 -5.349965,-5.4939 l -1.667952,-0.268203 1.907851,-0.457657 c 3.267587,-0.783827 4.518545,-2.11561 5.110066,-5.440159 l 0.2731,-1.534997 0.770425,2.511859 c 0.894581,2.916665 2.146803,4.060167 4.937326,4.508647 l 1.721015,0.276595 -1.96872,0.472107 c -2.869823,0.688202 -3.790348,1.56591 -4.689621,4.471458 l -0.770425,2.489245 z"
       id="path1-6" /></g></svg>
