<?xml version="1.0" encoding="UTF-8" standalone="no"?>
<!-- Created with Inkscape (http://www.inkscape.org/) -->

<svg
   version="1.1"
   id="svg1"
   width="800"
   height="671.53601"
   viewBox="0 0 799.99999 671.53601"
   preserveAspectRatio="xMidYMid slice"
   sodipodi:docname="square.png"
   xml:space="preserve"
   inkscape:export-filename="intro_home_section.svg"
   inkscape:export-xdpi="67.199997"
   inkscape:export-ydpi="67.199997"
   xmlns:inkscape="http://www.inkscape.org/namespaces/inkscape"
   xmlns:sodipodi="http://sodipodi.sourceforge.net/DTD/sodipodi-0.dtd"
   xmlns="http://www.w3.org/2000/svg"
   xmlns:svg="http://www.w3.org/2000/svg"><defs
     id="defs1" /><sodipodi:namedview
     id="namedview1"
     pagecolor="#ffffff"
     bordercolor="#000000"
     borderopacity="0.25"
     inkscape:showpageshadow="2"
     inkscape:pageopacity="0.0"
     inkscape:pagecheckerboard="0"
     inkscape:deskcolor="#d1d1d1"
     showguides="false"><inkscape:page
       x="0"
       y="0"
       width="800"
       height="671.53601"
       id="page2"
       margin="0"
       bleed="0" /></sodipodi:namedview><g
     inkscape:groupmode="layer"
     inkscape:label="Image"
     id="g1"><path
       style="fill:#3170df;stroke-width:1.4046"
       d="m 252.58869,6.4602567 c 1.41819,0.680752 2.04676,2.2953682 1.55814,4.0024173 -0.46221,1.614814 -1.60563,2.382742 -3.53878,2.376696 -1.2927,-0.0035 -1.71087,-0.151281 -2.45379,-0.863993 -1.81863,-1.744672 -1.39698,-4.7512083 0.78722,-5.6129613 1.44555,-0.57032 2.3032,-0.547319 3.64721,0.09783 z m -26.27384,-0.170557 c 1.29016,0.539672 1.67581,1.273609 1.66927,3.1766172 -0.005,1.3073901 -0.14774,1.6802311 -0.93004,2.4209101 -0.74985,0.709973 -1.19475,0.874657 -2.35299,0.871036 -1.89899,-0.0058 -2.89965,-0.486869 -3.48652,-1.675635 -1.64501,-3.3320633 1.50839,-6.2954183 5.10028,-4.7929283 z M 199.8109,6.0471127 c 2.5084,1.035755 2.68717,5.2333433 0.2672,6.2750523 -1.01662,0.437619 -3.14996,0.457614 -3.96777,0.03713 -0.87593,-0.450302 -1.55259,-1.885079 -1.54778,-3.2818611 0.006,-1.7557082 1.2829,-3.0395062 3.17433,-3.1916102 0.775,-0.06232 1.7083,0.01044 2.07402,0.161249 z m -26.04896,0.166355 c 1.4182,0.680764 2.04677,2.29538 1.55815,4.0024293 -0.46223,1.614814 -1.60562,2.382742 -3.53878,2.376696 -1.29271,-0.0035 -1.71088,-0.151281 -2.45379,-0.863993 -1.81864,-1.7446721 -1.39697,-4.7512083 0.78721,-5.6129613 1.44554,-0.57032 2.30321,-0.547319 3.64721,0.097829 z m -26.27383,-0.170545 c 1.29015,0.539672 1.67581,1.273597 1.66926,3.1766172 -0.005,1.3073901 -0.14775,1.6802311 -0.93002,2.4208981 -0.74986,0.709973 -1.19475,0.874669 -2.35299,0.871048 -1.89899,-0.0058 -2.89965,-0.486869 -3.48655,-1.675635 -1.64501,-3.3320633 1.50839,-6.2954183 5.1003,-4.7929283 z m -26.50397,-0.242587 c 2.50843,1.035755 2.68718,5.2333433 0.26723,6.2750523 -1.01662,0.437619 -3.14997,0.457614 -3.96779,0.03713 -0.87592,-0.450302 -1.5526,-1.885079 -1.54778,-3.2818611 0.006,-1.7557082 1.28291,-3.0395172 3.17434,-3.1916102 0.77498,-0.06232 1.70828,0.01044 2.074,0.161249 z m -26.048965,0.166355 c 1.41822,0.680764 2.04679,2.295369 1.55818,4.0024182 -0.46223,1.6148251 -1.60564,2.3827531 -3.5388,2.3766951 -1.29271,-0.0035 -1.71087,-0.151269 -2.45379,-0.863981 -1.81862,-1.7446951 -1.39697,-4.7512203 0.78722,-5.6129723 1.44553,-0.57032 2.30321,-0.547319 3.64719,0.09783 z M 68.661372,5.7961347 c 1.290151,0.539683 1.675807,1.273608 1.669249,3.1766172 -0.0048,1.3074011 -0.147738,1.6802301 -0.930019,2.4209091 -0.749852,0.709973 -1.194756,0.874657 -2.352994,0.871037 -1.898991,-0.0058 -2.899648,-0.486858 -3.486536,-1.675624 -1.645007,-3.3320753 1.508383,-6.2954303 5.1003,-4.7929393 z M 42.157404,5.5535467 c 2.508417,1.035767 2.68717,5.2333443 0.267218,6.2750523 -1.016626,0.437619 -3.149958,0.457603 -3.967786,0.03714 C 37.58091,11.415436 36.90425,9.9806599 36.90907,8.5838887 c 0.006,-1.75572 1.282897,-3.039517 3.174323,-3.191622 0.774976,-0.06232 1.708281,0.01044 2.074011,0.161249 z m -26.048953,0.166367 c 1.418191,0.680752 2.046775,2.295369 1.558148,4.0024182 -0.462215,1.6148141 -1.605611,2.3827411 -3.53877,2.3766951 -1.292716,-0.0035 -1.710886,-0.151292 -2.453796,-0.863992 -1.8186411,-1.7446841 -1.396971,-4.7512093 0.787209,-5.6129613 1.44555,-0.57032 2.303217,-0.547319 3.647209,0.09783 z M 225.30057,26.120034 c 1.29015,0.539683 1.67581,1.273608 1.66926,3.176617 -0.005,1.30739 -0.14774,1.68023 -0.93002,2.420909 -0.74985,0.709973 -1.19477,0.874657 -2.35298,0.871037 -1.89899,-0.0058 -2.89968,-0.486858 -3.48655,-1.675635 -1.645,-3.332064 1.50839,-6.295419 5.10029,-4.792928 z m -26.50396,-0.242588 c 2.50843,1.035767 2.68717,5.233343 0.26722,6.275052 -1.01662,0.437619 -3.14998,0.457602 -3.96779,0.03714 -0.87593,-0.450303 -1.55259,-1.88508 -1.54777,-3.28185 0.006,-1.75572 1.28289,-3.039517 3.17434,-3.191622 0.77498,-0.06232 1.70828,0.01044 2.074,0.161249 z m -26.05329,0.150143 c 1.4277,0.709149 1.95159,1.712666 1.77095,3.392235 -0.20837,1.937626 -1.53305,3.010018 -3.70969,3.003218 -1.34338,-0.0035 -1.74113,-0.144399 -2.51446,-0.886285 -0.77333,-0.741875 -0.9178,-1.121852 -0.9134,-2.40218 0.005,-1.234627 0.16905,-1.694446 0.87554,-2.442993 1.11688,-1.183381 2.91131,-1.448691 4.49106,-0.663995 z m -26.2695,-0.154332 c 1.29015,0.539671 1.67583,1.273585 1.66927,3.176617 -0.005,1.30739 -0.14773,1.68023 -0.93003,2.420909 -0.74986,0.709961 -1.19475,0.874657 -2.35299,0.871037 -1.89899,-0.0058 -2.89965,-0.48687 -3.48652,-1.675635 -1.64501,-3.332064 1.50838,-6.295419 5.10027,-4.792928 z m -26.50394,-0.242588 c 2.50841,1.035755 2.68717,5.233343 0.2672,6.275052 -1.01662,0.437619 -3.14996,0.457602 -3.96777,0.03714 -0.87593,-0.450303 -1.55259,-1.88508 -1.54778,-3.281862 0.006,-1.755708 1.28289,-3.039505 3.17433,-3.19161 0.77498,-0.06232 1.7083,0.01044 2.07402,0.161249 z m -26.053305,0.150132 c 1.42771,0.70916 1.9516,1.712677 1.77096,3.392246 -0.20839,1.937626 -1.53307,3.010018 -3.70971,3.003206 -1.34338,-0.0035 -1.74112,-0.144387 -2.51444,-0.886273 -0.77333,-0.741886 -0.91782,-1.121864 -0.91341,-2.402191 0.005,-1.234616 0.16905,-1.694447 0.87553,-2.442982 1.11689,-1.183381 2.91133,-1.448691 4.49107,-0.664006 z M 67.647084,25.62648 c 1.290151,0.539671 1.675806,1.273585 1.66926,3.176617 -0.0048,1.30739 -0.14775,1.680207 -0.930019,2.420898 -0.749864,0.709972 -1.194768,0.874668 -2.353006,0.871036 -1.898978,-0.0058 -2.899648,-0.486858 -3.486536,-1.675623 -1.645007,-3.332064 1.508396,-6.295419 5.100301,-4.792928 z M 41.143115,25.383892 c 2.508429,1.035755 2.687182,5.233332 0.267231,6.275041 -1.016635,0.437618 -3.14997,0.457602 -3.967787,0.03714 -0.875925,-0.450303 -1.552597,-1.885079 -1.547778,-3.28185 0.006,-1.75572 1.282898,-3.039517 3.174323,-3.19161 0.774992,-0.06232 1.708293,0.01044 2.074011,0.161249 z m -26.053268,0.150132 c 1.427686,0.70916 1.951585,1.712666 1.77095,3.392235 -0.208378,1.937637 -1.533069,3.010029 -3.709695,3.003217 -1.343406,-0.0035 -1.741134,-0.144399 -2.51446,-0.886285 -0.7733261,-0.741874 -0.9178031,-1.121852 -0.9134031,-2.402179 0.0048,-1.234616 0.169054,-1.694447 0.8755191,-2.442982 1.1169,-1.183393 2.911336,-1.448702 4.491089,-0.664006 z M 198.72825,45.710738 c 2.50842,1.035768 2.68717,5.233344 0.26722,6.275053 -1.01663,0.437618 -3.14996,0.457602 -3.96778,0.03714 -0.87593,-0.450303 -1.5526,-1.885079 -1.54778,-3.28185 0.006,-1.75572 1.2829,-3.039517 3.17432,-3.191622 0.77499,-0.06232 1.7083,0.01044 2.07402,0.16125 z m -26.05329,0.150144 c 1.4277,0.709149 1.9516,1.712666 1.77097,3.392235 -0.20841,1.937626 -1.53308,3.010041 -3.70972,3.003217 -1.34338,-0.0035 -1.74111,-0.144399 -2.51444,-0.886285 -0.77332,-0.741874 -0.91782,-1.121852 -0.9134,-2.402179 0.005,-1.234616 0.16905,-1.694447 0.87552,-2.442994 1.11689,-1.18338 2.91133,-1.44869 4.49107,-0.663994 z m -26.26949,-0.154333 c 1.29015,0.539672 1.67581,1.273585 1.66925,3.176617 -0.005,1.30739 -0.14774,1.680231 -0.93001,2.42091 -0.74986,0.709961 -1.19475,0.874657 -2.35299,0.871036 -1.89899,-0.0058 -2.89967,-0.48687 -3.48655,-1.675635 -1.64499,-3.332064 1.5084,-6.295419 5.1003,-4.792928 z M 119.9015,45.463961 c 2.50843,1.035756 2.68717,5.233344 0.26722,6.275053 -1.01661,0.437618 -3.14997,0.457602 -3.96779,0.03713 -0.87592,-0.450303 -1.55258,-1.885079 -1.54776,-3.281861 0.006,-1.755709 1.28291,-3.039506 3.17433,-3.191611 0.77498,-0.06232 1.70829,0.01045 2.074,0.16125 z m -26.053275,0.150132 c 1.42769,0.709161 1.95157,1.712678 1.77095,3.392247 -0.20839,1.937626 -1.53307,3.010018 -3.70971,3.003206 -1.34339,-0.0035 -1.74113,-0.144388 -2.51445,-0.886274 -0.77333,-0.741874 -0.91781,-1.121863 -0.91341,-2.402191 0.005,-1.234616 0.16907,-1.694446 0.87554,-2.442982 1.11688,-1.18338 2.91134,-1.44869 4.49108,-0.664006 z M 67.578711,45.459772 c 1.290151,0.539672 1.675831,1.273585 1.669273,3.176617 -0.0048,1.30739 -0.147738,1.680219 -0.930031,2.420898 -0.74984,0.709973 -1.194756,0.874669 -2.352982,0.871036 -1.898991,-0.0058 -2.89966,-0.486858 -3.486536,-1.675623 -1.645007,-3.332064 1.508383,-6.295419 5.100276,-4.792928 z M 41.074767,45.217184 c 2.508417,1.035756 2.68717,5.233332 0.267207,6.275041 -1.016611,0.437619 -3.149959,0.457602 -3.967775,0.03714 -0.875926,-0.450302 -1.552586,-1.885079 -1.547766,-3.281849 0.006,-1.75572 1.282886,-3.039518 3.174323,-3.191611 0.77498,-0.06232 1.708296,0.01045 2.074011,0.16125 z m -26.053292,0.150132 c 1.42771,0.709161 1.951597,1.712666 1.770961,3.392235 -0.208389,1.937638 -1.533068,3.01003 -3.709707,3.003218 -1.343381,-0.0035 -1.741121,-0.144399 -2.514447,-0.886285 -0.7733261,-0.741875 -0.9178151,-1.121852 -0.9134031,-2.40218 0.0048,-1.234616 0.169042,-1.694446 0.8755301,-2.442982 1.116889,-1.183392 2.911325,-1.448702 4.491066,-0.664006 z M 172.6066,65.694172 c 1.4277,0.709149 1.95159,1.712666 1.77095,3.392235 -0.20837,1.937626 -1.53305,3.010041 -3.70969,3.003217 -1.34338,-0.0035 -1.74113,-0.144399 -2.51446,-0.886285 -0.77333,-0.741874 -0.9178,-1.121851 -0.91339,-2.402167 0.005,-1.234628 0.16904,-1.694458 0.87553,-2.443006 1.11688,-1.18338 2.91132,-1.44869 4.49106,-0.663994 z m -26.26949,-0.154333 c 1.29015,0.539672 1.67581,1.273585 1.66926,3.176617 -0.005,1.30739 -0.14773,1.680231 -0.93003,2.42091 -0.74985,0.709961 -1.19475,0.874657 -2.35299,0.871036 -1.89899,-0.0058 -2.89965,-0.486869 -3.48654,-1.675635 -1.64499,-3.332064 1.50841,-6.295418 5.1003,-4.792928 z m -26.50395,-0.242587 c 2.5084,1.035755 2.68717,5.233343 0.2672,6.275052 -1.01662,0.437618 -3.14996,0.457602 -3.96777,0.03714 -0.87593,-0.450303 -1.55259,-1.885079 -1.54778,-3.281861 0.006,-1.755708 1.28289,-3.039506 3.17433,-3.191611 0.77499,-0.06232 1.70829,0.01045 2.07402,0.16125 z m -26.053305,0.150131 c 1.4277,0.709161 1.9516,1.712678 1.77096,3.392247 -0.20838,1.937626 -1.53305,3.010018 -3.70969,3.003206 -1.3434,-0.0035 -1.74114,-0.144388 -2.51446,-0.886274 -0.77333,-0.741874 -0.91782,-1.121863 -0.91341,-2.402191 0.005,-1.234616 0.16906,-1.694446 0.87552,-2.442982 1.1169,-1.18338 2.91134,-1.44869 4.49108,-0.664006 z M 67.510363,65.293062 c 1.290151,0.539672 1.675807,1.273597 1.669249,3.176617 -0.0048,1.30739 -0.147738,1.680219 -0.930007,2.420898 -0.749864,0.709973 -1.194756,0.874669 -2.352994,0.871037 -1.898991,-0.0058 -2.899648,-0.486858 -3.486548,-1.675624 -1.644995,-3.332064 1.508395,-6.295418 5.1003,-4.792928 z M 41.006395,65.050475 c 2.508429,1.035755 2.68717,5.233331 0.26723,6.27504 -1.016622,0.437619 -3.14997,0.457602 -3.967774,0.03714 -0.875938,-0.450326 -1.55261,-1.885091 -1.54779,-3.281862 0.006,-1.75572 1.282909,-3.039517 3.174335,-3.19161 0.77498,-0.06232 1.708284,0.01044 2.073999,0.161249 z m -26.053269,0.150131 c 1.427687,0.709161 1.951586,1.712666 1.77095,3.392247 -0.208389,1.937626 -1.533068,3.010018 -3.709707,3.003206 -1.343393,-0.0035 -1.741121,-0.144399 -2.514447,-0.886285 -0.7733261,-0.741875 -0.9178151,-1.121852 -0.9133911,-2.40218 0.0048,-1.234616 0.169042,-1.694446 0.8755181,-2.442982 1.116877,-1.183392 2.911337,-1.448702 4.491077,-0.664006 z M 146.26874,85.373128 c 1.29016,0.53968 1.67583,1.2736 1.66926,3.17662 -0.005,1.30739 -0.14772,1.68023 -0.93002,2.42091 -0.74985,0.70997 -1.19474,0.87466 -2.35298,0.87104 -1.89899,-0.006 -2.89966,-0.48687 -3.48654,-1.67564 -1.645,-3.33206 1.50839,-6.29542 5.10028,-4.79293 z m -26.50394,-0.24258 c 2.50841,1.03575 2.68715,5.23334 0.2672,6.27505 -1.01661,0.43762 -3.14997,0.4576 -3.96777,0.0371 -0.87594,-0.4503 -1.55259,-1.88508 -1.54777,-3.28186 0.006,-1.75571 1.28288,-3.0395 3.17432,-3.19161 0.77498,-0.0623 1.70829,0.0104 2.07402,0.16125 z m -26.053305,0.15013 c 1.4277,0.70916 1.95158,1.71268 1.77095,3.39224 -0.20838,1.93763 -1.53306,3.01002 -3.7097,3.00321 -1.34338,-0.003 -1.74113,-0.14439 -2.51446,-0.88627 -0.77332,-0.74188 -0.9178,-1.12187 -0.91339,-2.40219 0.005,-1.23462 0.16905,-1.69445 0.87553,-2.44299 1.11688,-1.18338 2.91133,-1.44869 4.49107,-0.664 z m -26.269492,-0.15432 c 1.290151,0.53967 1.675819,1.27359 1.669261,3.17661 -0.0048,1.30739 -0.147738,1.68022 -0.930031,2.4209 -0.74984,0.70997 -1.194756,0.87467 -2.352995,0.87104 -1.89899,-0.006 -2.899647,-0.48686 -3.486523,-1.67563 -1.645008,-3.33206 1.508395,-6.29541 5.100288,-4.79292 z m -26.503956,-0.24259 c 2.508417,1.03575 2.68717,5.23333 0.267206,6.27504 -1.016611,0.43762 -3.149958,0.4576 -3.967774,0.0371 -0.875926,-0.45033 -1.552586,-1.8851 -1.547778,-3.28187 0.006,-1.7557 1.282897,-3.03951 3.174335,-3.19161 0.774992,-0.0623 1.708296,0.0105 2.074011,0.16125 z m -26.053293,0.15013 c 1.427711,0.70916 1.951597,1.71268 1.770962,3.39225 -0.208377,1.93762 -1.533056,3.01002 -3.709695,3.0032 -1.343393,-0.003 -1.741134,-0.1444 -2.514459,-0.88628 -0.7733261,-0.74188 -0.9178151,-1.12185 -0.9134031,-2.40218 0.0048,-1.23462 0.169054,-1.69445 0.8755301,-2.44298 1.116889,-1.1834 2.911325,-1.44871 4.491065,-0.66401 z M 119.69642,104.96383 c 2.50842,1.03575 2.68719,5.23334 0.26723,6.27505 -1.01663,0.43762 -3.14997,0.4576 -3.96779,0.0371 -0.87592,-0.45031 -1.55259,-1.88508 -1.54777,-3.28187 0.006,-1.7557 1.28289,-3.0395 3.17432,-3.19161 0.77499,-0.0623 1.7083,0.0105 2.07401,0.16125 z m -26.053275,0.15013 c 1.42769,0.70916 1.95159,1.71268 1.77095,3.39225 -0.20838,1.93762 -1.53307,3.01001 -3.70971,3.0032 -1.34339,-0.003 -1.74112,-0.14438 -2.51444,-0.88627 -0.77333,-0.74188 -0.91781,-1.12186 -0.91341,-2.40217 0.005,-1.23464 0.16906,-1.69447 0.87552,-2.443 1.1169,-1.18338 2.91134,-1.44869 4.49109,-0.66401 z m -26.269502,-0.15432 c 1.290151,0.53967 1.675819,1.2736 1.669249,3.17662 -0.0048,1.30739 -0.147726,1.68021 -0.930008,2.42089 -0.749863,0.70998 -1.194756,0.87467 -2.352994,0.87104 -1.89899,-0.006 -2.899647,-0.48686 -3.486535,-1.67562 -1.645008,-3.33207 1.508383,-6.29542 5.100288,-4.79293 z m -26.503956,-0.24259 c 2.508417,1.03576 2.687158,5.23333 0.267218,6.27504 -1.016623,0.43762 -3.149958,0.45762 -3.967786,0.0371 -0.875938,-0.45031 -1.552586,-1.88509 -1.547767,-3.28186 0.006,-1.75571 1.282898,-3.03952 3.174324,-3.19161 0.77498,-0.0623 1.708284,0.0104 2.074011,0.16125 z m -26.053281,0.15013 c 1.427687,0.70916 1.951573,1.71268 1.770962,3.39225 -0.208401,1.93763 -1.53308,3.01003 -3.709719,3.00321 -1.343381,-0.003 -1.74111,-0.1444 -2.514459,-0.88629 -0.7733261,-0.74187 -0.9178031,-1.12185 -0.9133791,-2.40218 0.0048,-1.23461 0.169042,-1.69445 0.8755181,-2.44298 1.116877,-1.18339 2.911337,-1.44869 4.491077,-0.66401 z m 78.758369,20.08007 c 1.42771,0.70916 1.9516,1.71268 1.77096,3.39225 -0.20839,1.93763 -1.53307,3.01003 -3.70971,3.00321 -1.34338,-0.003 -1.74112,-0.14439 -2.51444,-0.88628 -0.77334,-0.74187 -0.91782,-1.12186 -0.91341,-2.40217 0.005,-1.23464 0.16905,-1.69447 0.87553,-2.443 1.11689,-1.18338 2.91133,-1.44869 4.49107,-0.66401 z m -26.269492,-0.15432 c 1.290151,0.53967 1.675807,1.2736 1.669261,3.17662 -0.0048,1.30739 -0.147738,1.68023 -0.93002,2.4209 -0.749863,0.70997 -1.194768,0.87467 -2.353006,0.87104 -1.898978,-0.006 -2.899647,-0.48687 -3.486523,-1.67563 -1.645008,-3.33206 1.508395,-6.29542 5.100288,-4.79293 z m -26.503956,-0.24259 c 2.508429,1.03576 2.68717,5.23335 0.267218,6.27504 -1.016635,0.43763 -3.14997,0.45763 -3.967786,0.0371 -0.875926,-0.4503 -1.552586,-1.88508 -1.547779,-3.28186 0.006,-1.75571 1.282898,-3.03952 3.174347,-3.19161 0.77498,-0.0623 1.708285,0.0104 2.074,0.16125 z m -26.053281,0.15014 c 1.427686,0.70917 1.951585,1.71267 1.77095,3.39224 -0.208378,1.93763 -1.533056,3.01003 -3.709695,3.00321 -1.343393,-0.003 -1.741134,-0.1444 -2.51446,-0.88629 -0.7733251,-0.74187 -0.9178021,-1.12185 -0.9134021,-2.40218 0.0048,-1.23461 0.169054,-1.69444 0.8755181,-2.44298 1.116901,-1.18338 2.911336,-1.44869 4.491089,-0.664 z m 52.488889,19.92574 c 1.290151,0.53968 1.675806,1.2736 1.669249,3.17662 -0.0048,1.30739 -0.147738,1.68023 -0.930032,2.4209 -0.749839,0.70997 -1.194744,0.87467 -2.352982,0.87105 -1.89899,-0.006 -2.89966,-0.48687 -3.486535,-1.67564 -1.645008,-3.33206 1.508383,-6.29542 5.1003,-4.79293 z M 40.73297,144.38364 c 2.508413,1.03575 2.687166,5.23334 0.267203,6.27505 -1.016611,0.43762 -3.149958,0.45761 -3.967775,0.0371 -0.875925,-0.4503 -1.552585,-1.88508 -1.547766,-3.28186 0.006,-1.75571 1.282898,-3.03951 3.174323,-3.19161 0.77498,-0.0623 1.708285,0.0104 2.074015,0.16125 z m -26.053296,0.15013 c 1.42771,0.70917 1.951597,1.71268 1.770974,3.39224 -0.208402,1.93763 -1.53308,3.01003 -3.709719,3.00321 -1.343382,-0.003 -1.741122,-0.1444 -2.514448,-0.88628 -0.7733371,-0.74188 -0.9178141,-1.12186 -0.9134031,-2.40217 0.0048,-1.23463 0.169066,-1.69446 0.8755311,-2.443 1.116888,-1.18338 2.911336,-1.44869 4.491065,-0.664 z m 25.984924,19.68316 c 2.508425,1.03575 2.687178,5.23334 0.267227,6.27505 -1.016623,0.43762 -3.149971,0.45761 -3.967787,0.0371 -0.875926,-0.45031 -1.552597,-1.88508 -1.547778,-3.28186 0.006,-1.75571 1.28291,-3.03952 3.174335,-3.19162 0.77498,-0.0623 1.708284,0.0104 2.074003,0.16125 z m -26.053272,0.15013 c 1.427686,0.70917 1.951585,1.71268 1.770949,3.39225 -0.208377,1.93762 -1.533068,3.01003 -3.709695,3.0032 -1.343405,-0.003 -1.741133,-0.14438 -2.514459,-0.88628 -0.7733261,-0.74188 -0.9178031,-1.12185 -0.9133911,-2.40217 0.0048,-1.23463 0.169042,-1.69446 0.8755061,-2.44299 1.116901,-1.18338 2.911349,-1.44869 4.49109,-0.66401 z m -0.06846,19.83329 c 1.427698,0.70918 1.951585,1.71268 1.770949,3.39225 -0.208377,1.93763 -1.533056,3.01003 -3.709695,3.00321 -1.343381,-0.003 -1.741133,-0.14439 -2.514459,-0.88629 -0.7733261,-0.74187 -0.9178031,-1.12185 -0.9134031,-2.40217 0.0048,-1.23463 0.169054,-1.69446 0.8755421,-2.44299 1.116877,-1.18338 2.911313,-1.44868 4.491066,-0.66401 z"
       id="path4-7" /><path
       style="fill:#3170df;stroke-width:1.4046"
       d="m 551.18578,666.28016 c -1.41819,-0.68076 -2.04676,-2.29537 -1.55814,-4.00242 0.46221,-1.61482 1.60563,-2.38274 3.53878,-2.3767 1.2927,0.003 1.71087,0.15128 2.45379,0.864 1.81863,1.74467 1.39698,4.7512 -0.78722,5.61296 -1.44555,0.57032 -2.3032,0.54732 -3.64721,-0.0978 z m 26.27384,0.17055 c -1.29016,-0.53967 -1.67581,-1.27361 -1.66927,-3.17661 0.005,-1.30739 0.14774,-1.68024 0.93004,-2.42091 0.74985,-0.70998 1.19475,-0.87466 2.35299,-0.87104 1.89899,0.006 2.89965,0.48687 3.48652,1.67563 1.64501,3.33207 -1.50839,6.29542 -5.10028,4.79293 z m 26.50395,0.24259 c -2.5084,-1.03576 -2.68717,-5.23334 -0.2672,-6.27505 1.01662,-0.43762 3.14996,-0.45762 3.96777,-0.0371 0.87593,0.4503 1.55259,1.88508 1.54778,3.28186 -0.006,1.75571 -1.2829,3.0395 -3.17433,3.19161 -0.775,0.0623 -1.7083,-0.0104 -2.07402,-0.16125 z m 26.04896,-0.16636 c -1.4182,-0.68076 -2.04677,-2.29538 -1.55815,-4.00242 0.46223,-1.61482 1.60562,-2.38275 3.53878,-2.3767 1.29271,0.003 1.71088,0.15128 2.45379,0.86399 1.81864,1.74467 1.39697,4.75121 -0.78721,5.61296 -1.44554,0.57032 -2.30321,0.54732 -3.64721,-0.0978 z m 26.27383,0.17055 c -1.29015,-0.53967 -1.67581,-1.2736 -1.66926,-3.17662 0.005,-1.30739 0.14775,-1.68023 0.93002,-2.4209 0.74986,-0.70997 1.19475,-0.87466 2.35299,-0.87104 1.89899,0.006 2.89965,0.48687 3.48655,1.67563 1.64501,3.33206 -1.50839,6.29542 -5.1003,4.79293 z m 26.50397,0.24259 c -2.50843,-1.03576 -2.68718,-5.23335 -0.26723,-6.27506 1.01662,-0.43761 3.14997,-0.45761 3.96779,-0.0371 0.87592,0.45031 1.5526,1.88508 1.54778,3.28187 -0.006,1.7557 -1.28291,3.03951 -3.17434,3.19161 -0.77498,0.0623 -1.70828,-0.0104 -2.074,-0.16125 z m 26.04897,-0.16636 c -1.41822,-0.68076 -2.04679,-2.29537 -1.55818,-4.00242 0.46223,-1.61482 1.60564,-2.38275 3.5388,-2.37669 1.29271,0.004 1.71087,0.15127 2.45379,0.86398 1.81862,1.74469 1.39697,4.75122 -0.78722,5.61297 -1.44553,0.57032 -2.30321,0.54732 -3.64719,-0.0978 z m 26.2738,0.17056 c -1.29015,-0.53969 -1.67581,-1.27361 -1.66925,-3.17662 0.005,-1.3074 0.14774,-1.68023 0.93002,-2.42091 0.74985,-0.70997 1.19476,-0.87466 2.35299,-0.87104 1.89899,0.006 2.89965,0.48686 3.48654,1.67563 1.64501,3.33207 -1.50838,6.29543 -5.1003,4.79294 z m 26.50397,0.24259 c -2.50842,-1.03577 -2.68717,-5.23335 -0.26722,-6.27506 1.01663,-0.43762 3.14996,-0.4576 3.96779,-0.0371 0.87592,0.45031 1.55258,1.88508 1.54776,3.28185 -0.006,1.75572 -1.2829,3.03952 -3.17432,3.19163 -0.77498,0.0623 -1.70828,-0.0104 -2.07401,-0.16125 z m 26.04895,-0.16637 c -1.41819,-0.68075 -2.04677,-2.29537 -1.55815,-4.00242 0.46222,-1.61481 1.60561,-2.38274 3.53877,-2.37669 1.29272,0.004 1.71089,0.15129 2.4538,0.86399 1.81864,1.74468 1.39697,4.75121 -0.78721,5.61296 -1.44555,0.57032 -2.30322,0.54732 -3.64721,-0.0978 z M 578.4739,646.62038 c -1.29015,-0.53968 -1.67581,-1.27361 -1.66926,-3.17662 0.005,-1.30739 0.14774,-1.68023 0.93002,-2.42091 0.74985,-0.70997 1.19477,-0.87465 2.35298,-0.87103 1.89899,0.006 2.89968,0.48685 3.48655,1.67563 1.645,3.33206 -1.50839,6.29542 -5.10029,4.79293 z m 26.50396,0.24259 c -2.50843,-1.03577 -2.68717,-5.23335 -0.26722,-6.27506 1.01662,-0.43761 3.14998,-0.4576 3.96779,-0.0371 0.87593,0.45031 1.55259,1.88508 1.54777,3.28185 -0.006,1.75572 -1.28289,3.03952 -3.17434,3.19163 -0.77498,0.0623 -1.70828,-0.0104 -2.074,-0.16125 z m 26.05329,-0.15015 c -1.4277,-0.70915 -1.95159,-1.71266 -1.77095,-3.39223 0.20837,-1.93763 1.53305,-3.01002 3.70969,-3.00322 1.34338,0.004 1.74113,0.1444 2.51446,0.88629 0.77333,0.74187 0.9178,1.12185 0.9134,2.40218 -0.005,1.23462 -0.16905,1.69444 -0.87554,2.44299 -1.11688,1.18338 -2.91131,1.44869 -4.49106,0.66399 z m 26.2695,0.15434 c -1.29015,-0.53968 -1.67583,-1.27359 -1.66927,-3.17662 0.005,-1.30739 0.14773,-1.68023 0.93003,-2.42091 0.74986,-0.70996 1.19475,-0.87466 2.35299,-0.87104 1.89899,0.006 2.89965,0.48687 3.48652,1.67564 1.64501,3.33206 -1.50838,6.29542 -5.10027,4.79293 z m 26.50394,0.24258 c -2.50841,-1.03575 -2.68717,-5.23334 -0.2672,-6.27505 1.01662,-0.43762 3.14996,-0.4576 3.96777,-0.0371 0.87593,0.4503 1.55259,1.88508 1.54778,3.28186 -0.006,1.75571 -1.28289,3.03951 -3.17433,3.19161 -0.77498,0.0623 -1.7083,-0.0104 -2.07402,-0.16125 z m 26.05331,-0.15013 c -1.42771,-0.70916 -1.9516,-1.71268 -1.77096,-3.39224 0.20839,-1.93763 1.53307,-3.01002 3.70971,-3.00321 1.34338,0.003 1.74112,0.14439 2.51444,0.88627 0.77333,0.74189 0.91782,1.12187 0.91341,2.40219 -0.005,1.23462 -0.16905,1.69445 -0.87553,2.44299 -1.11689,1.18338 -2.91133,1.44869 -4.49107,0.664 z m 26.26949,0.15432 c -1.29015,-0.53967 -1.67581,-1.27358 -1.66926,-3.17661 0.005,-1.30739 0.14775,-1.68021 0.93002,-2.4209 0.74986,-0.70997 1.19476,-0.87467 2.353,-0.87104 1.89898,0.006 2.89965,0.48686 3.48654,1.67562 1.64501,3.33207 -1.5084,6.29542 -5.1003,4.79293 z m 26.50397,0.24259 c -2.50843,-1.03575 -2.68719,-5.23333 -0.26723,-6.27504 1.01663,-0.43762 3.14997,-0.4576 3.96778,-0.0371 0.87593,0.4503 1.5526,1.88508 1.54778,3.28185 -0.006,1.75572 -1.2829,3.03952 -3.17432,3.19161 -0.77499,0.0623 -1.7083,-0.0104 -2.07401,-0.16125 z m 26.05327,-0.15013 c -1.42769,-0.70916 -1.95159,-1.71267 -1.77095,-3.39224 0.20837,-1.93763 1.53306,-3.01003 3.70969,-3.00321 1.34341,0.003 1.74113,0.1444 2.51446,0.88628 0.77333,0.74188 0.9178,1.12185 0.9134,2.40218 -0.005,1.23462 -0.16905,1.69445 -0.87552,2.44298 -1.1169,1.1834 -2.91133,1.4487 -4.49108,0.66401 z M 605.04622,627.02967 c -2.50842,-1.03576 -2.68717,-5.23334 -0.26722,-6.27505 1.01663,-0.43762 3.14996,-0.4576 3.96778,-0.0371 0.87593,0.4503 1.5526,1.88508 1.54778,3.28185 -0.006,1.75572 -1.2829,3.03952 -3.17432,3.19162 -0.77499,0.0623 -1.7083,-0.0104 -2.07402,-0.16125 z m 26.05329,-0.15014 c -1.4277,-0.70915 -1.9516,-1.71267 -1.77097,-3.39223 0.20841,-1.93763 1.53308,-3.01005 3.70972,-3.00322 1.34338,0.003 1.74111,0.1444 2.51444,0.88628 0.77332,0.74188 0.91782,1.12186 0.9134,2.40218 -0.005,1.23462 -0.16905,1.69445 -0.87552,2.443 -1.11689,1.18338 -2.91133,1.44869 -4.49107,0.66399 z m 26.26949,0.15433 c -1.29015,-0.53967 -1.67581,-1.27358 -1.66925,-3.17661 0.005,-1.30739 0.14774,-1.68023 0.93001,-2.42091 0.74986,-0.70996 1.19475,-0.87466 2.35299,-0.87104 1.89899,0.006 2.89967,0.48687 3.48655,1.67564 1.64499,3.33206 -1.5084,6.29541 -5.1003,4.79292 z m 26.50397,0.24259 c -2.50843,-1.03575 -2.68717,-5.23334 -0.26722,-6.27505 1.01661,-0.43762 3.14997,-0.4576 3.96779,-0.0371 0.87592,0.4503 1.55258,1.88508 1.54776,3.28186 -0.006,1.75571 -1.28291,3.03951 -3.17433,3.19161 -0.77498,0.0623 -1.70829,-0.0104 -2.074,-0.16125 z m 26.05328,-0.15013 c -1.42769,-0.70916 -1.95157,-1.71268 -1.77095,-3.39225 0.20839,-1.93762 1.53307,-3.01002 3.70971,-3.0032 1.34339,0.004 1.74113,0.14438 2.51445,0.88627 0.77333,0.74187 0.91781,1.12186 0.91341,2.40219 -0.005,1.23462 -0.16907,1.69445 -0.87554,2.44298 -1.11688,1.18338 -2.91134,1.44869 -4.49108,0.66401 z m 26.26951,0.15432 c -1.29015,-0.53967 -1.67583,-1.27358 -1.66927,-3.17662 0.005,-1.30739 0.14774,-1.68022 0.93003,-2.42089 0.74984,-0.70998 1.19475,-0.87467 2.35298,-0.87104 1.89899,0.006 2.89966,0.48686 3.48654,1.67562 1.645,3.33207 -1.50839,6.29542 -5.10028,4.79293 z m 26.50394,0.24259 c -2.50841,-1.03576 -2.68717,-5.23333 -0.2672,-6.27504 1.01661,-0.43762 3.14996,-0.4576 3.96777,-0.0371 0.87593,0.4503 1.55259,1.88508 1.54777,3.28185 -0.006,1.75572 -1.28289,3.03951 -3.17432,3.19161 -0.77498,0.0623 -1.7083,-0.0104 -2.07402,-0.16125 z m 26.0533,-0.15013 c -1.42771,-0.70916 -1.9516,-1.71267 -1.77096,-3.39224 0.20839,-1.93764 1.53306,-3.01003 3.7097,-3.00322 1.34338,0.003 1.74112,0.1444 2.51445,0.88629 0.77333,0.74187 0.91782,1.12185 0.9134,2.40218 -0.005,1.23461 -0.16904,1.69444 -0.87553,2.44298 -1.11689,1.18339 -2.91132,1.4487 -4.49106,0.66401 z M 631.16787,607.04624 c -1.4277,-0.70915 -1.95159,-1.71267 -1.77095,-3.39224 0.20837,-1.93762 1.53305,-3.01004 3.70969,-3.00321 1.34338,0.003 1.74113,0.1444 2.51446,0.88628 0.77333,0.74188 0.9178,1.12185 0.91339,2.40217 -0.005,1.23463 -0.16904,1.69446 -0.87553,2.44301 -1.11688,1.18338 -2.91132,1.44869 -4.49106,0.66399 z m 26.26949,0.15433 c -1.29015,-0.53967 -1.67581,-1.27358 -1.66926,-3.17662 0.005,-1.30739 0.14773,-1.68023 0.93003,-2.42091 0.74985,-0.70996 1.19475,-0.87465 2.35299,-0.87103 1.89899,0.006 2.89965,0.48687 3.48654,1.67563 1.64499,3.33207 -1.50841,6.29542 -5.1003,4.79293 z m 26.50395,0.24259 c -2.5084,-1.03575 -2.68717,-5.23334 -0.2672,-6.27505 1.01662,-0.43762 3.14996,-0.4576 3.96777,-0.0371 0.87593,0.4503 1.55259,1.88508 1.54778,3.28186 -0.006,1.75571 -1.28289,3.03951 -3.17433,3.19161 -0.77499,0.0623 -1.70829,-0.0104 -2.07402,-0.16125 z m 26.05331,-0.15013 c -1.4277,-0.70916 -1.9516,-1.71268 -1.77096,-3.39225 0.20838,-1.93763 1.53305,-3.01002 3.70969,-3.00321 1.3434,0.004 1.74114,0.14439 2.51446,0.88628 0.77333,0.74187 0.91782,1.12186 0.91341,2.40219 -0.005,1.23462 -0.16906,1.69445 -0.87552,2.44298 -1.1169,1.18338 -2.91134,1.44869 -4.49108,0.66401 z m 26.26949,0.15432 c -1.29015,-0.53967 -1.67581,-1.2736 -1.66925,-3.17662 0.005,-1.30739 0.14774,-1.68022 0.93001,-2.4209 0.74986,-0.70997 1.19475,-0.87466 2.35299,-0.87103 1.89899,0.006 2.89965,0.48686 3.48655,1.67562 1.64499,3.33207 -1.5084,6.29542 -5.1003,4.79293 z m 26.50397,0.24259 c -2.50843,-1.03576 -2.68717,-5.23334 -0.26723,-6.27504 1.01662,-0.43762 3.14997,-0.45761 3.96777,-0.0371 0.87594,0.45032 1.55261,1.88509 1.54779,3.28186 -0.006,1.75572 -1.28291,3.03952 -3.17433,3.19161 -0.77498,0.0623 -1.70829,-0.0104 -2.074,-0.16125 z m 26.05327,-0.15013 c -1.42769,-0.70916 -1.95159,-1.71267 -1.77095,-3.39225 0.20839,-1.93763 1.53306,-3.01002 3.7097,-3.00321 1.3434,0.004 1.74112,0.1444 2.51445,0.88629 0.77333,0.74187 0.91782,1.12185 0.91339,2.40218 -0.005,1.23461 -0.16904,1.69444 -0.87552,2.44298 -1.11687,1.18339 -2.91133,1.4487 -4.49107,0.66401 z M 657.50573,587.36728 c -1.29016,-0.53968 -1.67583,-1.2736 -1.66926,-3.17662 0.005,-1.30739 0.14772,-1.68023 0.93002,-2.42091 0.74985,-0.70997 1.19474,-0.87466 2.35298,-0.87104 1.89899,0.006 2.89966,0.48687 3.48654,1.67564 1.645,3.33206 -1.50839,6.29542 -5.10028,4.79293 z m 26.50394,0.24258 c -2.50841,-1.03575 -2.68715,-5.23334 -0.2672,-6.27505 1.01661,-0.43762 3.14997,-0.4576 3.96777,-0.0371 0.87594,0.4503 1.55259,1.88508 1.54777,3.28186 -0.006,1.75571 -1.28288,3.0395 -3.17432,3.19161 -0.77498,0.0623 -1.70829,-0.0104 -2.07402,-0.16125 z m 26.05331,-0.15013 c -1.4277,-0.70916 -1.95158,-1.71268 -1.77095,-3.39224 0.20838,-1.93763 1.53306,-3.01002 3.7097,-3.00321 1.34338,0.003 1.74113,0.14439 2.51446,0.88627 0.77332,0.74188 0.9178,1.12187 0.91339,2.40219 -0.005,1.23462 -0.16905,1.69445 -0.87553,2.44299 -1.11688,1.18338 -2.91133,1.44869 -4.49107,0.664 z m 26.26949,0.15432 c -1.29015,-0.53967 -1.67582,-1.27359 -1.66926,-3.17661 0.005,-1.30739 0.14774,-1.68022 0.93003,-2.4209 0.74984,-0.70997 1.19475,-0.87467 2.35299,-0.87104 1.89899,0.006 2.89965,0.48686 3.48653,1.67563 1.645,3.33206 -1.5084,6.29541 -5.10029,4.79292 z m 26.50395,0.24259 c -2.50841,-1.03575 -2.68717,-5.23333 -0.2672,-6.27504 1.01661,-0.43762 3.14996,-0.4576 3.96777,-0.0371 0.87593,0.45033 1.55259,1.8851 1.54778,3.28187 -0.006,1.7557 -1.2829,3.03951 -3.17433,3.19161 -0.775,0.0623 -1.7083,-0.0105 -2.07402,-0.16125 z m 26.0533,-0.15013 c -1.42771,-0.70916 -1.9516,-1.71268 -1.77096,-3.39225 0.20837,-1.93762 1.53305,-3.01002 3.70969,-3.0032 1.34339,0.003 1.74114,0.1444 2.51446,0.88628 0.77333,0.74188 0.91782,1.12185 0.9134,2.40218 -0.005,1.23462 -0.16905,1.69445 -0.87553,2.44298 -1.11689,1.1834 -2.91132,1.44871 -4.49106,0.66401 z M 684.07805,567.77658 c -2.50842,-1.03575 -2.68719,-5.23334 -0.26723,-6.27505 1.01663,-0.43762 3.14997,-0.4576 3.96779,-0.0371 0.87592,0.45031 1.55259,1.88508 1.54777,3.28187 -0.006,1.7557 -1.28289,3.0395 -3.17432,3.19161 -0.77499,0.0623 -1.7083,-0.0105 -2.07401,-0.16125 z m 26.05328,-0.15013 c -1.42769,-0.70916 -1.95159,-1.71268 -1.77095,-3.39225 0.20838,-1.93762 1.53307,-3.01001 3.70971,-3.0032 1.34339,0.003 1.74112,0.14438 2.51444,0.88627 0.77333,0.74188 0.91781,1.12186 0.91341,2.40217 -0.005,1.23464 -0.16906,1.69447 -0.87552,2.443 -1.1169,1.18338 -2.91134,1.44869 -4.49109,0.66401 z m 26.2695,0.15432 c -1.29015,-0.53967 -1.67582,-1.2736 -1.66925,-3.17662 0.005,-1.30739 0.14773,-1.68021 0.93001,-2.42089 0.74986,-0.70998 1.19475,-0.87467 2.35299,-0.87104 1.89899,0.006 2.89965,0.48686 3.48654,1.67562 1.645,3.33207 -1.50839,6.29542 -5.10029,4.79293 z m 26.50395,0.24259 c -2.50841,-1.03576 -2.68715,-5.23333 -0.26721,-6.27504 1.01662,-0.43762 3.14995,-0.45762 3.96778,-0.0371 0.87594,0.45031 1.55259,1.88509 1.54777,3.28186 -0.006,1.75571 -1.2829,3.03952 -3.17432,3.19161 -0.77498,0.0623 -1.70829,-0.0104 -2.07402,-0.16125 z m 26.05329,-0.15013 c -1.42769,-0.70916 -1.95158,-1.71268 -1.77097,-3.39225 0.20841,-1.93763 1.53308,-3.01003 3.70972,-3.00321 1.34338,0.003 1.74111,0.1444 2.51446,0.88629 0.77333,0.74187 0.91781,1.12185 0.91338,2.40218 -0.005,1.23461 -0.16904,1.69445 -0.87552,2.44298 -1.11687,1.18339 -2.91133,1.44869 -4.49107,0.66401 z M 710.1997,547.79316 c -1.42771,-0.70916 -1.9516,-1.71268 -1.77096,-3.39225 0.20839,-1.93763 1.53307,-3.01003 3.70971,-3.00321 1.34338,0.003 1.74112,0.14439 2.51444,0.88628 0.77334,0.74187 0.91782,1.12186 0.91341,2.40217 -0.005,1.23464 -0.16905,1.69447 -0.87553,2.443 -1.11689,1.18338 -2.91133,1.44869 -4.49107,0.66401 z m 26.26949,0.15432 c -1.29015,-0.53967 -1.67581,-1.2736 -1.66926,-3.17662 0.005,-1.30739 0.14774,-1.68023 0.93002,-2.4209 0.74986,-0.70997 1.19477,-0.87467 2.353,-0.87104 1.89898,0.006 2.89965,0.48687 3.48653,1.67563 1.645,3.33206 -1.5084,6.29542 -5.10029,4.79293 z m 26.50395,0.24259 c -2.50842,-1.03576 -2.68717,-5.23335 -0.26721,-6.27504 1.01663,-0.43763 3.14997,-0.45763 3.96778,-0.0371 0.87593,0.4503 1.55259,1.88508 1.54778,3.28186 -0.006,1.75571 -1.2829,3.03952 -3.17435,3.19161 -0.77498,0.0623 -1.70828,-0.0104 -2.074,-0.16125 z m 26.05329,-0.15014 c -1.42769,-0.70917 -1.95159,-1.71267 -1.77095,-3.39224 0.20837,-1.93763 1.53305,-3.01003 3.70969,-3.00321 1.34339,0.003 1.74114,0.1444 2.51446,0.88629 0.77333,0.74187 0.9178,1.12185 0.9134,2.40218 -0.005,1.23461 -0.16905,1.69444 -0.87551,2.44298 -1.11691,1.18338 -2.91134,1.44869 -4.49109,0.664 z m -52.48889,-19.92574 c -1.29015,-0.53968 -1.67581,-1.2736 -1.66925,-3.17662 0.005,-1.30739 0.14774,-1.68023 0.93003,-2.4209 0.74984,-0.70997 1.19474,-0.87467 2.35298,-0.87105 1.89899,0.006 2.89966,0.48687 3.48654,1.67564 1.645,3.33206 -1.50839,6.29542 -5.1003,4.79293 z m 26.50396,0.24258 c -2.50841,-1.03575 -2.68716,-5.23334 -0.2672,-6.27505 1.01661,-0.43762 3.14996,-0.45761 3.96777,-0.0371 0.87593,0.4503 1.55259,1.88508 1.54777,3.28186 -0.006,1.75571 -1.2829,3.03951 -3.17432,3.19161 -0.77498,0.0623 -1.70829,-0.0104 -2.07402,-0.16125 z m 26.0533,-0.15013 c -1.42771,-0.70917 -1.9516,-1.71268 -1.77098,-3.39224 0.20841,-1.93763 1.53308,-3.01003 3.70972,-3.00321 1.34339,0.003 1.74113,0.1444 2.51445,0.88628 0.77334,0.74188 0.91782,1.12186 0.9134,2.40217 -0.005,1.23463 -0.16906,1.69446 -0.87553,2.443 -1.11688,1.18338 -2.91133,1.44869 -4.49106,0.664 z m -25.98493,-19.68316 c -2.50842,-1.03575 -2.68717,-5.23334 -0.26722,-6.27505 1.01662,-0.43762 3.14997,-0.45761 3.96778,-0.0371 0.87593,0.45031 1.5526,1.88508 1.54778,3.28186 -0.006,1.75571 -1.28291,3.03952 -3.17433,3.19162 -0.77498,0.0623 -1.70829,-0.0104 -2.07401,-0.16125 z m 26.05328,-0.15013 c -1.42769,-0.70917 -1.95159,-1.71268 -1.77095,-3.39225 0.20837,-1.93762 1.53307,-3.01003 3.70969,-3.0032 1.34341,0.003 1.74114,0.14438 2.51446,0.88628 0.77333,0.74188 0.9178,1.12185 0.91339,2.40217 -0.005,1.23463 -0.16904,1.69446 -0.8755,2.44299 -1.1169,1.18338 -2.91135,1.44869 -4.49109,0.66401 z m 0.0685,-19.83329 c -1.4277,-0.70918 -1.95159,-1.71268 -1.77095,-3.39225 0.20837,-1.93763 1.53305,-3.01003 3.70969,-3.00321 1.34338,0.003 1.74114,0.14439 2.51446,0.88629 0.77333,0.74187 0.9178,1.12185 0.9134,2.40217 -0.005,1.23463 -0.16905,1.69446 -0.87554,2.44299 -1.11687,1.18338 -2.91131,1.44868 -4.49106,0.66401 z"
       id="path4-7-8" /><path
       style="fill:#a7c6fe;stroke-width:0.678742"
       d="m 3.5188384,369.84116 c 13.9739496,2.22012 29.3334636,6.69145 41.5352166,12.09134 10.553442,4.67042 18.366874,9.69456 25.082055,16.12798 6.822441,6.5362 11.246811,14.10994 13.172555,22.54896 0.774461,3.39407 0.918257,10.68317 0.299843,15.2043 -1.705936,12.47194 -0.641931,24.37225 3.156515,35.30365 2.20206,6.33714 4.257475,10.54555 8.316927,17.02884 5.27922,8.4312 7.82004,15.23437 9.09159,24.3429 0.43725,3.1321 0.37022,11.06341 -0.12333,14.58882 -1.6021,11.44425 -6.698128,22.22731 -14.695578,31.09549 -3.288198,3.64619 -4.496138,4.66536 -19.969804,16.84949 -7.647493,6.02171 -14.416972,11.40443 -15.043314,11.96159 -2.762501,2.45728 -4.900382,5.792 -6.161225,9.61055 -0.572125,1.73264 -0.691427,2.69523 -0.679245,5.48053 0.02231,5.11469 1.076327,8.17601 4.499416,13.06838 9.970528,14.25015 29.787621,19.26873 56.62565,14.34014 7.57136,-1.39041 16.37807,-3.72715 22.20576,-5.89195 19.43492,-7.21951 40.39062,-11.72162 61.43589,-13.19884 5.32276,-0.37362 20.55071,-0.37766 25.49362,-0.007 34.19342,2.56565 61.03819,14.81932 81.41092,37.16104 7.51549,8.24186 19.49647,22.65295 20.89183,25.12933 0.26425,0.46899 -7.40674,0.49274 -159.1702,0.49274 H 1.4460913 L 1.4467886,557.996 1.4474858,442.82258 2.3348341,442.52839 c 0.488055,-0.16179 0.887428,-0.46853 0.887428,-0.68164 0,-0.21311 -0.3997216,-1.34434 -0.8882647,-2.51383 l -0.888185,-2.12637 v -33.78001 -33.78001 l 0.6661562,0.0383 c 0.3663924,0.0211 0.9992094,0.0913 1.4063817,0.15594 z m 9.1783866,64.14243 v 6.61669 h 1.776449 1.77651 v -6.61669 -6.61668 h -1.77651 -1.776449 z m 17.268901,2.81335 c -1.514398,3.23147 -2.72192,5.9013 -2.683291,5.93295 0.490625,0.40231 3.269621,1.27052 3.454127,1.07914 0.332565,-0.34499 5.354889,-11.16306 5.345774,-11.5148 -0.008,-0.30928 -2.640489,-1.53285 -3.085593,-1.43418 -0.152631,0.0338 -1.516549,2.70542 -3.031017,5.93689 z m 13.079151,7.745 -4.73007,4.50478 1.402895,1.33411 1.402896,1.33411 4.737033,-4.49818 c 2.605397,-2.47399 4.737023,-4.62101 4.737023,-4.77116 0,-0.37377 -2.117213,-2.40844 -2.506216,-2.40844 -0.172404,0 -2.441979,2.02715 -5.043561,4.50478 z M 53.41748,458.2215 c -3.262171,1.17444 -6.016942,2.21974 -6.121691,2.32288 -0.297124,0.29252 0.963639,3.14392 1.390086,3.14392 0.438699,0 12.009169,-4.21143 12.351675,-4.49578 0.301936,-0.25067 -0.95556,-3.10638 -1.367882,-3.10638 -0.176508,0 -2.990018,0.96092 -6.252188,2.13536 z m -3.266553,16.16613 v 1.83014 h 6.80977 6.80977 l 0.09084,-1.51503 c 0.0501,-0.83326 0.02022,-1.69089 -0.06684,-1.90584 -0.129392,-0.32068 -1.367883,-0.37723 -6.900604,-0.31512 l -6.742883,0.0757 z m -3.09164,13.67648 c -0.384202,0.88143 -0.570322,1.66925 -0.424643,1.79721 0.14268,0.12531 2.942623,1.36683 6.222056,2.75894 l 5.962644,2.5311 0.619808,-1.30152 c 0.340833,-0.71584 0.655438,-1.47489 0.699077,-1.68678 0.05219,-0.25391 -1.990051,-1.27668 -5.990276,-2.9998 -3.338241,-1.43801 -6.144939,-2.6267 -6.237087,-2.64154 -0.09224,-0.0148 -0.475385,0.67925 -0.851579,1.54239 z m -7.423522,10.40131 -1.312062,1.27135 4.870101,4.63774 4.870111,4.63774 1.265575,-1.18118 c 0.696088,-0.64964 1.265564,-1.31173 1.265564,-1.47129 0,-0.29324 -9.17999,-9.1657 -9.48338,-9.1657 -0.09015,0 -0.75428,0.57209 -1.475909,1.27134 z m -13.934425,8.17464 c -0.206221,0.12119 4.316503,11.63524 4.724781,12.02855 0.313909,0.30236 3.292581,-0.91673 3.292581,-1.34755 0,-0.28361 -1.505901,-4.10577 -4.462719,-11.32702 l -0.258924,-0.63233 -1.546971,0.57985 c -0.850811,0.31892 -1.637724,0.63324 -1.748748,0.6985 z m -13.004115,8.15158 v 6.61669 h 1.776449 1.77651 v -6.61669 -6.61668 h -1.77651 -1.776449 z m 237.238425,120.71229 -2.15352,2.03428 -2.15352,-2.03428 c -2.14126,-2.0227 -3.03032,-2.44102 -3.37459,-1.5878 -0.1231,0.30504 0.48944,1.08752 1.93378,2.47027 1.16268,1.1131 2.11395,2.13015 2.11395,2.2601 0,0.12996 -0.93944,1.06343 -2.08766,2.07438 -1.50697,1.32682 -2.06286,2.00247 -1.99851,2.42905 0.18252,1.21005 1.13907,0.85127 3.38385,-1.2692 l 2.1827,-2.06185 2.15352,2.03427 c 2.1415,2.02292 3.03031,2.44102 3.37473,1.5875 0.12376,-0.30668 -0.52835,-1.12465 -2.07976,-2.60869 l -2.26003,-2.16191 2.26126,-2.15039 c 1.56319,-1.48655 2.20523,-2.28925 2.07976,-2.6002 -0.34568,-0.85664 -1.23223,-0.44055 -3.37596,1.58447 z m -27.51679,-0.0174 -2.13516,2.01694 -2.18733,-2.01694 c -2.18779,-2.01738 -3.03803,-2.41173 -3.37883,-1.56714 -0.12548,0.31094 0.51656,1.11365 2.07975,2.60019 l 2.26126,2.1504 -2.26003,2.16191 c -1.55141,1.48404 -2.20352,2.302 -2.07976,2.60869 0.34441,0.85352 1.23323,0.43541 3.37472,-1.5875 l 2.15352,-2.03428 2.18272,2.06186 c 2.23475,2.11101 3.20111,2.47891 3.38135,1.2873 0.0604,-0.39909 -0.54582,-1.1535 -1.99852,-2.4872 -1.14684,-1.05291 -2.08516,-1.99453 -2.08516,-2.09249 0,-0.098 0.95127,-1.08884 2.11395,-2.20193 1.44433,-1.38276 2.05688,-2.16524 1.93378,-2.47029 -0.34371,-0.85178 -1.23203,-0.43611 -3.35626,1.57048 z m -25.33452,-0.062 -2.20121,1.95491 -2.03994,-1.95491 c -1.33402,-1.2784 -2.27322,-1.95491 -2.71405,-1.95491 -1.29137,0 -0.80312,1.13028 1.39891,3.23843 l 2.07303,1.98464 -2.07303,1.95628 c -1.3573,1.28088 -2.07303,2.17761 -2.07303,2.59736 0,1.19935 1.13842,0.74158 3.44489,-1.38524 l 2.19745,-2.0263 2.14509,2.0263 c 2.15302,2.0338 2.94747,2.41435 3.28646,1.57426 0.12586,-0.31189 -0.50154,-1.12042 -2.02355,-2.60776 l -2.20596,-2.15569 2.20689,-2.14681 c 1.53062,-1.48896 2.15071,-2.28602 2.02355,-2.60112 -0.34258,-0.84899 -1.24001,-0.45816 -3.4455,1.50056 z m -27.3855,0.0793 -2.15348,2.03428 -2.15355,-2.03428 c -2.14374,-2.02502 -3.03025,-2.44111 -3.37589,-1.58447 -0.1255,0.31095 0.51651,1.11365 2.0797,2.6002 l 2.26129,2.15039 -2.26004,2.16191 c -1.55142,1.48404 -2.20352,2.30201 -2.07977,2.60869 0.34439,0.85352 1.2332,0.43542 3.37471,-1.5875 l 2.15355,-2.03427 2.15348,2.03427 c 2.14151,2.02292 3.03032,2.44102 3.37478,1.5875 0.12375,-0.30668 -0.52842,-1.12465 -2.07977,-2.60869 l -2.26004,-2.16191 2.26123,-2.15039 c 1.56318,-1.48655 2.20526,-2.28925 2.07977,-2.6002 -0.34565,-0.85664 -1.23223,-0.44055 -3.37597,1.58447 z"
       id="path3-8" /><path
       style="fill:#a7c6fe;stroke-width:0.678742"
       d="m 798.36948,305.00511 c -13.97395,-2.22012 -29.33346,-6.69145 -41.53521,-12.09134 -10.55344,-4.67042 -18.36688,-9.69456 -25.08206,-16.12798 -6.82244,-6.5362 -11.24681,-14.10994 -13.17255,-22.54896 -0.77446,-3.39407 -0.91826,-10.68317 -0.29985,-15.2043 1.70594,-12.47194 0.64193,-24.37225 -3.15651,-35.30365 -2.20206,-6.33714 -4.25748,-10.54555 -8.31693,-17.02884 -5.27922,-8.4312 -7.82004,-15.23437 -9.09159,-24.3429 -0.43725,-3.1321 -0.37022,-11.06341 0.12333,-14.58882 1.6021,-11.44425 6.69813,-22.22731 14.69558,-31.09549 3.2882,-3.64619 4.49614,-4.66536 19.9698,-16.849491 7.6475,-6.02171 14.41698,-11.40443 15.04332,-11.96159 2.7625,-2.45728 4.90038,-5.792 6.16122,-9.61055 0.57213,-1.73264 0.69143,-2.69523 0.67925,-5.48053 -0.0223,-5.11469 -1.07633,-8.17601 -4.49942,-13.06838 -9.97053,-14.25015 -29.78762,-19.26873 -56.62565,-14.34014 -7.57136,1.39041 -16.37807,3.72715 -22.20576,5.89195 -19.43492,7.21951 -40.39062,11.72162 -61.43589,13.19884 -5.32276,0.37362 -20.55071,0.37766 -25.49362,0.007 -34.19342,-2.56565 -61.03819,-14.81932 -81.41091,-37.16104 -7.51549,-8.241861 -19.49647,-22.6529507 -20.89183,-25.1293307 -0.26425,-0.46899 7.40674,-0.49274 159.17019,-0.49274 h 159.44784 l -7e-4,115.1734417 -6.9e-4,115.17342 -0.88735,0.29419 c -0.48806,0.16179 -0.88743,0.46853 -0.88743,0.68164 0,0.21311 0.39972,1.34434 0.88827,2.51383 l 0.88818,2.12637 v 33.78001 33.78001 l -0.66616,-0.0383 c -0.36639,-0.0211 -0.99921,-0.0913 -1.40638,-0.15594 z m -9.17838,-64.14243 v -6.61669 h -1.77645 -1.77651 v 6.61669 6.61668 h 1.77651 1.77645 z m -17.2689,-2.81335 c 1.51439,-3.23147 2.72192,-5.9013 2.68329,-5.93295 -0.49063,-0.40231 -3.26962,-1.27052 -3.45413,-1.07914 -0.33256,0.34499 -5.35489,11.16306 -5.34577,11.5148 0.008,0.30928 2.64049,1.53285 3.08559,1.43418 0.15263,-0.0338 1.51655,-2.70542 3.03102,-5.93689 z m -13.07915,-7.745 4.73007,-4.50478 -1.4029,-1.33411 -1.4029,-1.33411 -4.73703,4.49818 c -2.6054,2.47399 -4.73702,4.62101 -4.73702,4.77116 0,0.37377 2.11721,2.40844 2.50621,2.40844 0.17241,0 2.44198,-2.02715 5.04357,-4.50478 z m -10.37221,-13.67956 c 3.26217,-1.17444 6.01694,-2.21974 6.12169,-2.32288 0.29713,-0.29252 -0.96364,-3.14392 -1.39008,-3.14392 -0.4387,0 -12.00917,4.21143 -12.35168,4.49578 -0.30193,0.25067 0.95556,3.10638 1.36788,3.10638 0.17651,0 2.99002,-0.96092 6.25219,-2.13536 z m 3.26656,-16.16613 v -1.83014 h -6.80977 -6.80978 l -0.0908,1.51503 c -0.0501,0.83326 -0.0202,1.69089 0.0668,1.90584 0.1294,0.32068 1.36789,0.37723 6.90061,0.31512 l 6.74288,-0.0757 z m 3.09164,-13.67648 c 0.3842,-0.88143 0.57032,-1.66925 0.42464,-1.79721 -0.14268,-0.12531 -2.94262,-1.36683 -6.22206,-2.75894 l -5.96264,-2.5311 -0.61981,1.30152 c -0.34083,0.71584 -0.65544,1.47489 -0.69908,1.68678 -0.0522,0.25391 1.99005,1.27668 5.99028,2.9998 3.33824,1.43801 6.14494,2.6267 6.23709,2.64154 0.0922,0.0148 0.47538,-0.67925 0.85158,-1.54239 z m 7.42352,-10.40131 1.31206,-1.27135 -4.8701,-4.63774 -4.87011,-4.63774 -1.26558,1.18118 c -0.69609,0.64964 -1.26556,1.31173 -1.26556,1.47129 0,0.29324 9.17999,9.1657 9.48338,9.1657 0.0901,0 0.75428,-0.57209 1.47591,-1.27134 z m 13.93442,-8.17464 c 0.20622,-0.12119 -4.3165,-11.63524 -4.72478,-12.02855 -0.31391,-0.30236 -3.29258,0.91673 -3.29258,1.34755 0,0.28361 1.5059,4.10577 4.46272,11.32702 l 0.25892,0.63233 1.54697,-0.57985 c 0.85082,-0.31892 1.63773,-0.63324 1.74875,-0.6985 z m 13.00412,-8.15158 v -6.61669 h -1.77645 -1.77651 v 6.61669 6.61668 h 1.77651 1.77645 z M 551.95267,39.342339 l 2.15352,-2.03428 2.15352,2.03428 c 2.14126,2.0227 3.03032,2.44102 3.37459,1.5878 0.1231,-0.30504 -0.48944,-1.08752 -1.93378,-2.47027 -1.16268,-1.1131 -2.11395,-2.13015 -2.11395,-2.2601 0,-0.12996 0.93944,-1.06343 2.08766,-2.07438 1.50697,-1.32682 2.06286,-2.00247 1.99851,-2.42905 -0.18252,-1.21005 -1.13907,-0.85127 -3.38385,1.2692 l -2.1827,2.06185 -2.15352,-2.03427 c -2.1415,-2.02292 -3.03031,-2.44102 -3.37473,-1.5875 -0.12376,0.30668 0.52835,1.12465 2.07976,2.60869 l 2.26003,2.16191 -2.26126,2.15039 c -1.56319,1.48655 -2.20523,2.28925 -2.07976,2.6002 0.34568,0.85664 1.23223,0.44055 3.37596,-1.58447 z m 27.51679,0.0174 2.13516,-2.01694 2.18733,2.01694 c 2.18779,2.01738 3.03803,2.41173 3.37883,1.56714 0.12548,-0.31094 -0.51656,-1.11365 -2.07975,-2.60019 l -2.26126,-2.1504 2.26003,-2.16191 c 1.55141,-1.48404 2.20352,-2.302 2.07976,-2.60869 -0.34441,-0.85352 -1.23323,-0.43541 -3.37472,1.5875 l -2.15352,2.03428 -2.18272,-2.06186 c -2.23475,-2.11101 -3.20111,-2.47891 -3.38135,-1.2873 -0.0604,0.39909 0.54582,1.1535 1.99852,2.4872 1.14684,1.05291 2.08516,1.99453 2.08516,2.09249 0,0.098 -0.95127,1.08884 -2.11395,2.20193 -1.44433,1.38276 -2.05688,2.16524 -1.93378,2.47029 0.34371,0.85178 1.23203,0.43611 3.35626,-1.57048 z m 25.33452,0.062 2.20121,-1.95491 2.03994,1.95491 c 1.33402,1.2784 2.27322,1.95491 2.71405,1.95491 1.29137,0 0.80312,-1.13028 -1.39891,-3.23843 l -2.07303,-1.98464 2.07303,-1.95628 c 1.3573,-1.28088 2.07303,-2.17761 2.07303,-2.59736 0,-1.19935 -1.13842,-0.74158 -3.44489,1.38524 l -2.19745,2.0263 -2.14509,-2.0263 c -2.15302,-2.0338 -2.94747,-2.41435 -3.28646,-1.57426 -0.12586,0.31189 0.50154,1.12042 2.02355,2.60776 l 2.20596,2.15569 -2.20689,2.14681 c -1.53062,1.48896 -2.15071,2.28602 -2.02355,2.60112 0.34258,0.84899 1.24001,0.45816 3.4455,-1.50056 z m 27.3855,-0.0793 2.15348,-2.03428 2.15355,2.03428 c 2.14374,2.02502 3.03025,2.44111 3.37589,1.58447 0.1255,-0.31095 -0.51651,-1.11365 -2.0797,-2.6002 l -2.26129,-2.15039 2.26004,-2.16191 c 1.55142,-1.48404 2.20352,-2.30201 2.07977,-2.60869 -0.34439,-0.85352 -1.2332,-0.43542 -3.37471,1.5875 l -2.15355,2.03427 -2.15348,-2.03427 c -2.14151,-2.02292 -3.03032,-2.44102 -3.37478,-1.5875 -0.12375,0.30668 0.52842,1.12465 2.07977,2.60869 l 2.26004,2.16191 -2.26123,2.15039 c -1.56318,1.48655 -2.20526,2.28925 -2.07977,2.6002 0.34565,0.85664 1.23223,0.44055 3.37597,-1.58447 z"
       id="path3-8-0" /><path
       style="fill:#3170df;stroke-width:0.588531"
       d="m 20.094499,314.76175 c -0.370585,-0.11479 -10.1507981,-7.9794 -10.4732891,-8.42193 -0.263938,-0.36217 -0.352001,-0.97246 -0.19788,-1.37124 0.151004,-0.39073 0.6301341,-0.87209 1.0554361,-1.06036 0.420516,-0.18616 1.342482,-0.18593 1.753113,4.2e-4 0.177965,0.0808 2.196753,1.66772 4.486195,3.52655 l 4.162617,3.37968 4.177066,-3.38643 c 2.29739,-1.86253 4.315812,-3.44947 4.485384,-3.52654 0.395347,-0.17965 1.325392,-0.17628 1.737853,0.006 0.425309,0.18828 0.904432,0.66963 1.055436,1.06035 0.154036,0.39855 0.06616,1.00827 -0.197827,1.37306 -0.322054,0.44497 -10.093822,8.30272 -10.469912,8.41914 -0.424797,0.1315 -1.151425,0.13195 -1.574192,0.001 z m 7.66e-4,-13.15763 c -0.505984,-0.15679 -10.3442611,-8.13504 -10.5814371,-8.58093 -0.380746,-0.71575 -0.11922,-1.55055 0.6493231,-2.07267 0.312751,-0.21247 0.500846,-0.26717 1.014655,-0.2951 0.388724,-0.0211 0.757172,0.0104 0.960221,0.0827 0.181203,0.0643 2.205674,1.63618 4.498829,3.49301 2.293148,1.85682 4.20346,3.37604 4.245145,3.37604 0.04173,0 1.92927,-1.49974 4.194639,-3.33276 2.26536,-1.83302 4.266385,-3.40323 4.446723,-3.48937 0.248493,-0.11869 0.49217,-0.14951 1.006439,-0.12729 0.574277,0.0248 0.737861,0.0696 1.064425,0.29148 0.788222,0.53552 1.037527,1.36753 0.62685,2.09195 -0.315193,0.55599 -10.080254,8.43995 -10.626966,8.57982 -0.478533,0.12243 -1.070857,0.11583 -1.498846,-0.0168 z m 0.16046,-13.09258 c -0.410347,-0.10783 -1.124173,-0.65172 -5.474188,-4.17074 -3.646871,-2.9502 -5.0660691,-4.15228 -5.2376401,-4.43626 -0.8291032,-1.37247 0.9806811,-2.93032 2.6371851,-2.27007 0.207299,0.0827 2.21,1.63665 4.487321,3.48197 2.262121,1.83304 4.158574,3.33278 4.214348,3.33278 0.05582,0 1.927655,-1.48028 4.159738,-3.28948 2.232091,-1.80922 4.245765,-3.37714 4.474833,-3.48426 1.546358,-0.72315 3.408576,0.67647 2.7775,2.08754 -0.198815,0.44455 -0.63453,0.81701 -6.32578,5.40748 -3.623302,2.9225 -4.030663,3.22502 -4.504189,3.34511 -0.612807,0.1554 -0.602309,0.15543 -1.209128,-0.005 z m -0.237743,-13.23516 c -0.345569,-0.15358 -2.05529,-1.48461 -5.372809,-4.18274 -5.0696831,-4.12318 -5.3221271,-4.36228 -5.3221271,-5.04089 0,-0.4653 0.443127,-1.1493 0.9319821,-1.4386 0.358624,-0.21222 0.515593,-0.24763 1.098514,-0.24784 0.563748,-2e-4 0.740664,0.0367 1.034066,0.21618 0.194679,0.11903 2.167357,1.68694 4.383728,3.48425 2.216371,1.7973 4.067111,3.26783 4.11277,3.26783 0.04564,0 1.894991,-1.47053 4.109646,-3.26783 2.214656,-1.79731 4.18516,-3.36522 4.378905,-3.48425 0.291924,-0.17935 0.468518,-0.21641 1.031064,-0.21641 0.88248,0 1.381327,0.25981 1.766659,0.92011 0.537362,0.92083 0.317353,1.40607 -1.215675,2.6813 -3.217296,2.67629 -8.820659,7.15412 -9.132185,7.29783 -0.585287,0.27003 -1.213232,0.27386 -1.804538,0.0116 z m 0.03132,-13.09835 c -0.209359,-0.0835 -2.531519,-1.89501 -5.271431,-4.11226 -5.1214291,-4.14447 -5.4547851,-4.45852 -5.4547851,-5.13898 0,-0.59375 0.5041,-1.27136 1.1657971,-1.56699 0.410225,-0.1833 1.33507,-0.18132 1.742814,0.003 0.177965,0.0808 2.196753,1.66771 4.486195,3.52653 l 4.162618,3.3797 4.177066,-3.38642 c 2.297389,-1.86254 4.315811,-3.44948 4.485391,-3.52655 0.395347,-0.17966 1.325384,-0.17629 1.737845,0.006 0.425309,0.18829 0.904432,0.66964 1.055436,1.06037 0.146854,0.37995 0.0706,0.99126 -0.16631,1.33376 -0.267154,0.38619 -10.039136,8.25472 -10.457861,8.4208 -0.2069,0.0821 -0.581474,0.14922 -0.832379,0.14922 -0.250898,0 -0.624576,-0.0671 -0.830396,-0.14922 z"
       id="path5" /><path
       style="fill:#3170df;stroke-width:0.605627"
       d="m 779.22241,365.23882 c 0.37058,0.12155 10.1508,8.44969 10.47329,8.9183 0.26394,0.38353 0.352,1.02979 0.19788,1.45207 -0.15101,0.41375 -0.63014,0.92348 -1.05544,1.12285 -0.42051,0.19713 -1.34248,0.19689 -1.75311,-4.4e-4 -0.17797,-0.0856 -2.19675,-1.76601 -4.4862,-3.7344 l -4.16261,-3.57888 -4.17707,3.58602 c -2.29739,1.97231 -4.31581,3.65278 -4.48538,3.73439 -0.39535,0.19025 -1.32539,0.18667 -1.73786,-0.006 -0.4253,-0.19938 -0.90443,-0.70909 -1.05543,-1.12285 -0.15404,-0.42204 -0.0662,-1.06769 0.19783,-1.45398 0.32205,-0.4712 10.09382,-8.79207 10.46991,-8.91535 0.42479,-0.13925 1.15142,-0.13973 1.57419,-10e-4 z m -7.7e-4,13.93313 c 0.50599,0.16602 10.34426,8.61449 10.58144,9.08666 0.38075,0.75794 0.11922,1.64195 -0.64932,2.19483 -0.31275,0.225 -0.50085,0.28292 -1.01466,0.3125 -0.38872,0.0224 -0.75717,-0.0111 -0.96022,-0.0875 -0.1812,-0.0681 -2.20567,-1.73262 -4.49883,-3.69888 -2.29315,-1.96627 -4.20346,-3.57502 -4.24514,-3.57502 -0.0417,0 -1.92927,1.58813 -4.19464,3.52919 -2.26536,1.94105 -4.26639,3.60381 -4.44672,3.69502 -0.2485,0.12569 -0.49217,0.15832 -1.00644,0.1348 -0.57428,-0.0263 -0.73786,-0.0737 -1.06443,-0.30867 -0.78822,-0.56707 -1.03753,-1.44812 -0.62685,-2.21524 0.31519,-0.58876 10.08026,-8.93738 10.62697,-9.08551 0.47853,-0.12964 1.07085,-0.12265 1.49884,0.0178 z m -0.16046,13.86423 c 0.41035,0.11418 1.12418,0.69013 5.47419,4.41656 3.64687,3.12408 5.06607,4.397 5.23764,4.69772 0.8291,1.45336 -0.98068,3.10302 -2.63718,2.40386 -0.2073,-0.0875 -2.21,-1.73311 -4.48732,-3.68719 -2.26213,-1.94107 -4.15858,-3.5292 -4.21435,-3.5292 -0.0558,0 -1.92766,1.56751 -4.15974,3.48335 -2.23209,1.91585 -4.24577,3.57618 -4.47483,3.68961 -1.54636,0.76577 -3.40858,-0.71634 -2.7775,-2.21057 0.19881,-0.47075 0.63453,-0.86517 6.32578,-5.72619 3.6233,-3.09474 4.03066,-3.4151 4.50419,-3.54226 0.6128,-0.16456 0.6023,-0.1646 1.20912,0.005 z m 0.23775,14.01521 c 0.34557,0.16264 2.05529,1.57211 5.37281,4.42927 5.06968,4.36619 5.32212,4.61939 5.32212,5.33799 0,0.49272 -0.44312,1.21704 -0.93198,1.52339 -0.35862,0.22473 -0.51559,0.26223 -1.09851,0.26245 -0.56375,2.1e-4 -0.74067,-0.0389 -1.03407,-0.22892 -0.19468,-0.12605 -2.16736,-1.78637 -4.38373,-3.68961 -2.21637,-1.90323 -4.06711,-3.46043 -4.11277,-3.46043 -0.0456,0 -1.89499,1.5572 -4.10964,3.46043 -2.21466,1.90324 -4.18516,3.56356 -4.37891,3.68961 -0.29192,0.18991 -0.46852,0.22916 -1.03106,0.22916 -0.88248,0 -1.38133,-0.27512 -1.76666,-0.97434 -0.53736,-0.9751 -0.31735,-1.48894 1.21567,-2.83933 3.2173,-2.83403 8.82066,-7.57577 9.13219,-7.72795 0.58529,-0.28594 1.21323,-0.29001 1.80454,-0.0123 z m -0.0313,13.87035 c 0.20936,0.0884 2.53152,2.0067 5.27143,4.35463 5.12143,4.38874 5.45478,4.72129 5.45478,5.44186 0,0.62875 -0.5041,1.34629 -1.16579,1.65935 -0.41023,0.1941 -1.33507,0.192 -1.74282,-0.004 -0.17796,-0.0856 -2.19675,-1.766 -4.48619,-3.73438 l -4.16262,-3.57889 -4.17707,3.58601 c -2.29739,1.97232 -4.31581,3.65279 -4.48539,3.73441 -0.39535,0.19024 -1.32538,0.18667 -1.73784,-0.006 -0.42531,-0.19938 -0.90444,-0.70911 -1.05544,-1.12286 -0.14685,-0.40235 -0.0706,-1.04969 0.16631,-1.41238 0.26715,-0.40895 10.03914,-8.74124 10.45786,-8.91711 0.2069,-0.0869 0.58148,-0.15801 0.83238,-0.15801 0.2509,0 0.62458,0.0711 0.8304,0.15801 z"
       id="path5-86" /></g></svg>
