<svg xmlns="http://www.w3.org/2000/svg" xmlns:xlink="http://www.w3.org/1999/xlink" width="1086" height="1175">
	<path fill="#93A9F5" transform="scale(4.06742 4.06574)" d="M22.4168 105.454C29.4839 108.002 35.8807 111.294 42.5511 114.7C55.0521 121.084 66.7134 128.469 78.2819 136.394C85.952 141.648 93.6554 147.091 100.836 152.998C103.562 155.24 106.111 157.8 108.763 160.147C111.449 162.524 114.351 164.662 116.999 167.067C121.739 171.372 126.18 176.041 130.714 180.563C134.988 184.825 139.362 189.056 143.443 193.503Q159.213 210.798 172.651 229.961C182.325 243.501 191.364 257.439 198.742 272.384C199.277 273.468 202.377 279.161 202.345 279.916L201.747 280.049C201.385 280.269 201.126 280.326 200.708 280.374C200.114 280.08 199.849 279.64 199.518 279.089C197.862 276.337 196.529 273.314 195.028 270.468Q191.803 264.4 188.261 258.512Q180.201 244.907 171.099 231.976Q161.998 219.045 151.911 206.867Q145.499 199.235 138.694 191.952Q131.889 184.669 124.709 177.755Q117.529 170.841 109.994 164.316Q102.459 157.79 94.5908 151.671C90.3733 148.337 86.2381 144.859 81.8988 141.685C70.4337 133.3 57.9252 125.506 45.4186 118.776Q38.2259 114.89 30.7859 111.502C28.3265 110.357 25.6538 109.371 23.2937 108.055C22.7333 107.743 22.3189 107.489 22.0645 106.873C22.0064 106.256 22.0823 105.974 22.4168 105.454Z"/>
	<path fill="#93A9F5" transform="scale(4.06742 4.06574)" d="M22.4502 32.4181Q31.9583 35.0237 41.2131 38.4209Q50.4679 41.8181 59.4036 45.9828Q68.3248 50.1695 76.9842 54.8739Q85.6436 59.5782 94.0113 64.7839Q102.379 69.9895 110.426 75.6784Q118.473 81.3673 126.171 87.5198C129.716 90.3349 133.078 93.3348 136.528 96.2566C140.096 99.2777 143.784 102.233 147.236 105.387C150.479 108.35 153.469 111.649 156.602 114.733C192.468 150.033 224.233 193.718 241.417 241.304C243.233 246.332 253.048 276.945 251.602 280.031L251.088 280.082C250.678 280.302 250.41 280.34 249.948 280.351C248.808 279.676 246.804 267.901 246.237 265.648C234.373 218.493 205.989 172.511 173.948 136.288C170.801 132.731 167.306 129.403 164.03 125.952C153.136 114.474 141.591 103.359 129.361 93.3061Q122.256 87.4907 114.869 82.0373Q107.482 76.5839 99.8326 71.5062Q92.1828 66.4286 84.2889 61.7392Q76.3951 57.0499 68.2769 52.7606C60.3134 48.5852 52.3038 45.1605 43.9496 41.8385C40.6038 40.508 23.4329 35.1568 22.2242 33.7309C22.0862 33.0834 22.158 33.024 22.4502 32.4181Z"/>
	<path fill="#93A9F5" transform="scale(4.06742 4.06574)" d="M22.3471 69.4989C27.3262 70.2998 35.7302 74.4595 40.6027 76.5206C51.8184 81.265 62.2393 87.2745 72.6021 93.6279Q79.6021 97.9371 86.4093 102.545Q93.2165 107.152 99.8183 112.05Q106.42 116.947 112.804 122.126Q119.188 127.304 125.342 132.753Q131.496 138.202 137.409 143.912Q143.323 149.622 148.983 155.583Q154.644 161.543 160.042 167.742Q165.44 173.941 170.565 180.368C171.016 175.693 170.606 171.856 169.854 167.259C171.229 168.826 172.359 170.615 173.734 172.193C179.121 178.375 186.519 181.032 194.579 180.321C196.241 180.174 198.142 179.215 199.7 179.321C199.351 180.606 196.563 181.84 195.547 182.737C194.67 183.511 193.869 184.428 193.113 185.32C189.099 190.05 186.588 196.41 187.084 202.672C195.632 214.053 205.373 230.307 211.579 243.133C214.277 248.708 216.939 254.344 219.399 260.028C220.467 262.495 221.946 268.264 223.402 270.053C223.636 273.003 227.247 277.381 226.552 280.222L226.06 280.501C223.741 280.494 223.443 277.517 222.762 275.566C216.932 258.877 193.179 207.375 178.044 199.007C171.104 195.17 164.888 195.256 157.454 197.401C157.504 197.347 157.553 197.292 157.603 197.238C159.115 195.615 160.801 194.865 162.496 193.517C165.688 190.979 167.882 186.615 169.723 183.068C168.045 180.559 165.766 178.306 163.822 175.991C158.03 169.091 152.277 162.502 145.917 156.104C140.373 150.527 134.99 144.621 129.233 139.273C126.156 136.415 122.766 133.913 119.581 131.179C100.847 115.101 81.1963 100.56 59.5256 88.6375C53.3648 85.2481 46.8273 81.9473 40.4273 79.0146C36.3598 77.1507 25.08 73.1807 22.2667 70.8214C21.998 70.167 22.0711 70.1625 22.3471 69.4989Z"/>
</svg>
