<?xml version="1.0" encoding="utf-8" ?>
<svg xmlns="http://www.w3.org/2000/svg" xmlns:xlink="http://www.w3.org/1999/xlink" width="670" height="790" viewBox="0 0 670 790">
	<path fill="#85A5F8" transform="scale(2.80939 2.80769)" d="M212.917 59.1218C213.172 59.3412 213.369 59.5551 213.472 59.8825C215.114 65.1136 215.056 69.3386 217.901 74.5137C218.88 76.2945 220.236 77.6457 221.839 78.8819C226.731 82.6544 231.035 82.3971 236.506 84.1487C237.132 84.3492 237.371 84.556 237.638 85.1379L237.347 85.4486C233.743 85.913 229.542 86.8643 226.148 88.1823C219.205 90.8786 216.573 96.8846 215.004 103.744C214.48 106.035 214.155 108.45 213.215 110.615C212.791 110.317 212.59 109.872 212.442 109.386C212.078 108.198 211.964 106.912 211.703 105.697C210.856 101.748 209.653 96.5196 207.181 93.285C202.753 87.4914 194.127 86.1253 187.374 85.2439C190.905 83.585 194.742 83.2909 198.378 82.0115C206.471 79.1634 209.684 73.2105 211.428 65.2585C211.826 63.4416 212.018 60.8985 212.849 59.2488C212.871 59.2059 212.895 59.1641 212.917 59.1218Z"/>
	<path fill="#85A5F8" transform="scale(2.80939 2.80769)" d="M109.946 196.802C110.088 196.889 110.015 196.839 110.19 196.979C111.346 197.898 111.353 200.199 111.587 201.596C112.718 208.357 114.623 215.244 117.954 221.28C119.426 223.946 121.541 226.732 123.958 228.596C128.618 232.189 138.358 234.972 144.062 236.349C146.042 236.826 148.315 236.951 150.216 237.574C150.795 237.765 150.918 237.872 151.165 238.408C149.447 239.141 146.83 239.074 144.943 239.466C139.14 240.67 133.257 242.498 127.948 245.161C117.613 250.346 114.181 262.164 112.04 272.7C111.67 274.522 111.597 277.744 110.395 279.148C109.007 277.111 108.166 270.063 107.367 267.209C106.159 262.893 104.642 258.42 102.536 254.452C97.6565 245.261 85.6306 241.219 76.0005 239.388C73.7775 238.966 71.2885 239.211 69.1525 238.55L69.1444 238.251C70.9377 237.037 80.2165 235.525 83.0688 234.708C86.7196 233.662 90.5494 232.056 93.8302 230.142C102.317 225.191 106.055 214.829 108.125 205.694C108.794 202.746 109.183 199.725 109.946 196.802Z"/>
</svg>
