<svg xmlns="http://www.w3.org/2000/svg" xmlns:xlink="http://www.w3.org/1999/xlink" width="1321" height="1150">
	<path fill="#96ACF6" transform="scale(3.79598 3.79538)" d="M347.682 206.743C346.701 206.379 345.744 205.841 344.803 205.375C341.51 203.744 338.449 201.731 335.233 199.967C332.166 198.284 328.932 196.892 325.918 195.112C321.86 192.716 318.009 189.862 314.057 187.284Q309.312 184.146 304.655 180.877Q299.998 177.609 295.434 174.212Q290.87 170.816 286.402 167.294Q281.935 163.772 277.566 160.127Q273.198 156.482 268.932 152.718Q264.667 148.953 260.507 145.072Q256.348 141.19 252.298 137.195Q248.248 133.199 244.31 129.093Q240.373 124.986 236.551 120.772Q232.729 116.558 229.025 112.239Q225.322 107.921 221.739 103.501Q218.157 99.0811 214.699 94.5635Q211.241 90.0459 207.91 85.4341Q204.578 80.8222 201.376 76.1197Q198.174 71.4171 195.104 66.6275Q192.034 61.8378 189.098 56.9648C186.545 52.7412 183.864 48.5538 181.479 44.2342C179.358 40.3928 177.483 36.3674 175.508 32.4448C173.997 29.4439 172.133 26.3114 171.097 23.1229C170.869 22.4227 170.624 21.648 170.976 20.9559C172.831 20.7933 174.794 24.8183 175.5 26.3406C185.817 48.6035 199.744 69.777 214.224 89.5044Q221.683 99.5202 229.757 109.047Q237.831 118.575 246.488 127.576Q255.145 136.577 264.35 145.017Q273.555 153.456 283.272 161.301C284.075 161.959 284.716 162.756 285.496 163.43C287.561 165.214 289.727 166.945 291.861 168.645C294.603 170.829 297.622 172.721 300.47 174.769C304.171 177.431 307.71 180.265 311.521 182.78C318.725 187.532 326.173 192.26 333.713 196.455C338.233 198.969 343.408 201.083 347.66 203.973C348.053 205.013 348.122 205.71 347.682 206.743Z"/>
	<path fill="#96ACF6" transform="scale(3.79598 3.79538)" d="M347.575 286.278C341.855 284.274 336.068 282.3 330.435 280.066C325.931 278.279 321.549 275.966 317.187 273.858Q306.303 268.69 295.849 262.7Q285.395 256.711 275.432 249.936C273.078 248.321 270.847 246.529 268.528 244.863Q265.7 242.841 262.907 240.77Q260.114 238.7 257.357 236.582Q254.6 234.464 251.88 232.299Q249.16 230.133 246.477 227.922Q243.795 225.711 241.15 223.453Q238.506 221.196 235.901 218.894Q233.296 216.592 230.73 214.245Q228.165 211.899 225.64 209.509Q223.116 207.119 220.632 204.685Q218.149 202.252 215.708 199.777Q213.267 197.301 210.868 194.785Q208.47 192.268 206.115 189.71Q203.76 187.152 201.449 184.555Q199.139 181.957 196.873 179.32Q194.607 176.683 192.387 174.007Q190.167 171.332 187.993 168.619Q185.819 165.906 183.692 163.156Q181.565 160.406 179.486 157.619Q177.406 154.833 175.375 152.012Q173.343 149.191 171.361 146.335Q169.378 143.479 167.444 140.589Q165.511 137.7 163.627 134.778Q161.744 131.856 159.91 128.902Q158.077 125.948 156.295 122.962Q154.513 119.977 152.782 116.962Q151.051 113.947 149.373 110.902Q147.694 107.858 146.067 104.785Q144.441 101.712 142.868 98.6121Q141.294 95.5118 139.775 92.385Q138.255 89.2582 136.789 86.1058Q135.323 82.9534 133.911 79.7763Q132.499 76.5992 131.142 73.3983C128.228 66.6172 114.687 24.3712 116.734 19.7449C116.908 19.3515 117.047 19.3782 117.443 19.2241C118.125 19.5233 118.439 19.7766 118.781 20.4711C119.934 22.8147 121.335 31.6289 122.076 34.8024C126.035 51.7754 131.816 67.2572 138.549 83.2997C143.46 95.0005 149.592 106.319 155.988 117.271Q158.762 122.013 161.662 126.679Q164.562 131.344 167.587 135.93Q170.611 140.517 173.758 145.02Q176.904 149.523 180.17 153.941Q183.436 158.358 186.819 162.686Q190.203 167.014 193.701 171.25Q197.199 175.486 200.81 179.626Q204.421 183.767 208.141 187.809Q211.862 191.851 215.689 195.792Q219.517 199.732 223.449 203.569Q227.381 207.406 231.414 211.135Q235.448 214.865 239.58 218.485Q243.712 222.105 247.94 225.613Q252.167 229.121 256.488 232.515Q260.808 235.908 265.218 239.184Q269.628 242.46 274.124 245.617C280.484 250.053 286.934 254.591 293.595 258.56Q303.271 264.341 313.34 269.408Q323.409 274.476 333.817 278.802C338.367 280.684 343.089 282.154 347.651 284.016C347.922 284.826 348.11 285.259 347.691 286.065C347.654 286.137 347.614 286.207 347.575 286.278Z"/>
	<path fill="#96ACF6" transform="scale(3.79598 3.79538)" d="M182.412 101.515C181.39 98.4458 178.72 95.1101 177.007 92.3355C174.112 87.6431 171.242 82.8716 168.52 78.0761Q161.735 65.9859 156.095 53.3214Q150.454 40.6569 146.006 27.526C145.582 26.2867 143.764 21.732 144.025 20.6475C144.109 20.302 144.204 20.3303 144.484 20.1501C145.272 20.3418 145.682 20.7003 146.136 21.3788C148.254 24.5485 151.495 35.2766 153.295 39.6717C159.679 55.2519 177.762 95.5072 191.141 104.241C198.346 108.944 204.735 109.049 212.927 107.342C212.923 108.121 212.204 108.391 211.589 108.764C206.07 112.105 203.026 116.377 200.314 122.13C201.789 124.606 203.758 126.595 205.505 128.864C208.44 132.678 211.289 136.564 214.379 140.258C217.348 143.807 220.566 147.167 223.679 150.591C230.178 157.739 236.71 164.919 243.627 171.669C249.01 176.922 254.772 181.879 260.459 186.801C274.033 198.549 287.847 209.254 302.878 219.078C306.325 221.331 309.744 223.684 313.29 225.778C316.825 227.865 320.487 229.714 324.077 231.701C327.534 233.614 330.96 235.691 334.505 237.435C338.842 239.569 343.332 241.389 347.677 243.515C348.034 244.525 348.132 245.211 347.677 246.227C340.557 242.475 332.951 239.682 325.879 235.806Q320.062 232.611 314.357 229.219Q308.653 225.827 303.068 222.241Q297.483 218.656 292.024 214.881Q286.565 211.106 281.239 207.147Q275.913 203.187 270.725 199.047Q265.538 194.908 260.495 190.593Q255.452 186.278 250.56 181.792Q245.668 177.307 240.933 172.657C237.305 169.124 234.017 165.16 230.449 161.536C224.038 155.023 218.156 148.212 212.201 141.29C207.722 136.085 202.72 130.604 199.201 124.701C198.545 129.418 198.595 133.408 199.134 138.128C198.081 137.032 197.271 135.708 196.348 134.503C194.209 131.708 191.701 129.357 188.673 127.55C181.883 123.499 174.446 123.319 166.945 125.227C168.488 124.171 170.123 123.28 171.624 122.154C178.903 116.69 181.192 110.199 182.412 101.515Z"/>
</svg>
